<svg width="48" height="49" viewBox="0 0 48 49" fill="none" xmlns="http://www.w3.org/2000/svg">
    <path d="M21.6603 0.880859L21.5637 1.7604C21.3494 3.71252 21.5753 4.96395 21.8265 6.04139C21.8549 6.16325 21.8829 6.2806 21.9101 6.39461L21.9104 6.39587C22.1173 7.2628 22.2783 7.93754 22.2259 8.93822C22.191 9.60401 21.8561 10.5521 21.4519 11.4354C21.2603 11.8542 21.0706 12.2215 20.9286 12.4843L20.8898 12.5556H22.5013C22.5314 12.4919 22.5617 12.4269 22.592 12.3605C22.9986 11.4721 23.4982 10.198 23.5577 9.06193C23.6288 7.70449 23.3904 6.71594 23.181 5.84744C23.1538 5.73455 23.1271 5.62369 23.1016 5.51431C22.9317 4.78561 22.8783 4.18678 22.8315 3.66247C22.735 2.57999 22.6668 1.81517 21.6603 0.880859Z" fill="#FA7800"/>
    <path d="M15.5145 5.4445V6.33339C15.5145 6.69134 15.5957 6.91296 15.7467 7.32502C15.7631 7.3697 15.7804 7.41696 15.7984 7.46653C15.9867 7.985 16.2012 8.69046 16.0022 9.6944C15.9014 10.2029 15.7179 10.6037 15.6221 10.8129C15.5994 10.8625 15.5816 10.9014 15.5711 10.9283C15.5102 11.0834 15.4251 11.34 15.4251 12.1112V12.5556H14.2223V12.1112C14.2223 11.1046 14.3398 10.5227 14.5305 10.0365C14.6051 9.84638 14.6585 9.73128 14.6999 9.64193C14.7677 9.49575 14.8035 9.4185 14.8479 9.1946C14.9143 8.85987 14.8727 8.67645 14.7387 8.30735C14.1651 6.72802 14.5064 6.18947 15.5145 5.4445Z" fill="#FA7800"/>
    <path fill-rule="evenodd" clip-rule="evenodd" d="M5.33337 19.6667C5.33337 20.5583 5.98964 21.2965 6.84544 21.4248L5.33337 49.0001H39.1112L37.5991 21.4248C38.4549 21.2965 39.1112 20.5583 39.1112 19.6667V15.2223C39.1112 14.2404 38.3152 13.4445 37.3334 13.4445H7.11115C6.12931 13.4445 5.33337 14.2404 5.33337 15.2223V19.6667ZM37.3334 15.2223H7.11115L7.11115 19.6667H37.3334V15.2223ZM8.23487 28.5556L8.62481 21.4445H21.3334V28.5556H8.23487ZM23.1112 28.5556H36.2097L35.8197 21.4445H23.1112V28.5556ZM8.13739 30.3334L7.69872 38.3334H13.3334V30.3334H8.13739ZM15.1112 30.3334V38.3334H29.3334V30.3334H15.1112ZM36.7458 38.3334H31.1112V30.3334H36.3071L36.7458 38.3334ZM7.21131 47.2223L7.60124 40.1112H21.3334V47.2223H7.21131ZM23.1112 47.2223V40.1112H36.8433L37.2332 47.2223H23.1112Z" fill="#FA7800"/>
    <path d="M29.3322 3.53823L29.4287 2.65869C30.3619 3.52507 30.394 3.75197 30.5316 4.7221C30.5601 4.92267 30.593 5.155 30.6394 5.43132C30.6898 5.7318 30.7751 5.92844 30.8954 6.15829C30.914 6.19372 30.9354 6.23319 30.9589 6.27644C31.0783 6.4963 31.2509 6.81425 31.3714 7.20106C31.527 7.70031 31.5978 8.28732 31.5572 9.06198C31.4977 10.198 30.9982 11.4721 30.5917 12.3606C30.5613 12.4269 30.5311 12.492 30.501 12.5557H28.8898L28.9285 12.4844C29.0705 12.2216 29.2602 11.8542 29.4518 11.4355C29.8559 10.5522 30.1907 9.60406 30.2256 8.93827C30.2549 8.3796 30.1994 8.07772 30.1386 7.88253C30.0825 7.70272 30.0171 7.58069 29.9073 7.37592C29.8757 7.31701 29.8404 7.25125 29.8006 7.1753C29.63 6.84959 29.44 6.43512 29.3367 5.81894C29.2364 5.22107 29.2273 4.49389 29.3322 3.53823Z" fill="#FA7800"/>
</svg>
