<svg width="48" height="49" viewBox="0 0 48 49" fill="none" xmlns="http://www.w3.org/2000/svg">
    <g clip-path="url(#clip0_64_1010)">
        <path fill-rule="evenodd" clip-rule="evenodd" d="M13.3333 11.1668V4.05566H0V48.5001H48V18.2779H24.8889V11.1668H13.3333ZM11.5556 5.83344H1.77778V11.1668H11.5556V5.83344ZM36.4444 25.389V20.0557H46.2222V25.389H36.4444ZM46.2222 27.1668V32.5001H24.8889V27.1668H46.2222ZM23.1111 27.1668V32.5001H1.77778V27.1668H23.1111ZM11.5556 20.0557V25.389H1.77778V20.0557H11.5556ZM1.77778 18.2779V12.9446H23.1111V18.2779H1.77778ZM34.6667 20.0557V25.389H13.3333V20.0557H34.6667ZM46.2222 41.389V46.7223H24.8889V41.389H46.2222ZM36.4444 39.6112H46.2222V34.2779H36.4444V39.6112ZM11.5556 34.2779H1.77778V39.6112H11.5556V34.2779ZM1.77778 41.389V46.7223H23.1111V41.389H1.77778ZM34.6667 34.2779V39.6112H13.3333V34.2779H34.6667Z" fill="#FA7800"/>
        <path d="M34.0275 16.4643C34.2974 16.3853 34.4948 16.4484 35.0142 16.8224C35.0567 16.853 35.1022 16.8866 35.1506 16.9223C35.611 17.2624 36.3349 17.797 37.3004 17.8328C38.3759 17.8726 39.1677 17.3727 39.717 17.0259L39.8111 16.9666C40.4071 16.5932 40.7443 16.4249 41.2076 16.4911C41.457 16.5267 41.621 16.6732 42.0571 17.0627L42.0773 17.0807C42.4625 17.4247 43.1335 18.0055 44.159 17.8191C44.8573 17.6921 45.4639 17.1963 45.8143 16.8707C46.0095 16.6892 46.1719 16.5153 46.2855 16.387C46.3427 16.3224 46.3885 16.2683 46.421 16.2291C46.4372 16.2095 46.4502 16.1935 46.4596 16.1818L46.4711 16.1674L46.4749 16.1627L46.4762 16.161L46.477 16.16C46.4771 16.1599 46.4772 16.1597 45.7778 15.6112C45.0783 15.0626 45.0784 15.0625 45.0785 15.0624L45.0747 15.0671C45.0728 15.0695 45.0702 15.0727 45.0671 15.0765C45.063 15.0816 45.0579 15.0878 45.0518 15.0951C45.0304 15.1209 44.9974 15.1601 44.9546 15.2083C44.8683 15.3058 44.7464 15.4361 44.6039 15.5686C44.2788 15.8708 43.9965 16.0417 43.841 16.07C43.721 16.0918 43.6349 16.0882 43.2614 15.7547C43.232 15.7284 43.2 15.699 43.1653 15.6672C42.8373 15.366 42.2726 14.8474 41.459 14.7312C40.2956 14.565 39.4571 15.0905 38.8721 15.457L38.8671 15.4601C38.2376 15.8546 37.8732 16.075 37.3662 16.0562C36.9708 16.0416 36.6846 15.8352 36.1354 15.4391L36.0529 15.3797C35.5208 14.9966 34.6813 14.4205 33.5281 14.7581C32.8543 14.9553 32.4666 15.4316 32.2522 15.6951L32.2108 15.7457C31.9731 16.0341 31.9183 16.0559 31.841 16.07C31.7449 16.0874 31.6722 16.0961 31.2775 15.7299C31.253 15.7072 31.2265 15.6821 31.1982 15.6552C30.8666 15.341 30.2703 14.7759 29.3855 14.7238C28.4504 14.6688 27.4766 15.1216 26.8488 15.4731C26.511 15.6622 26.2209 15.8525 26.0155 15.9953C25.9122 16.0671 25.8291 16.1277 25.7706 16.1713C25.7413 16.1931 25.7181 16.2108 25.7016 16.2235L25.6817 16.2388L25.6757 16.2435L25.6736 16.2451L25.6725 16.246C25.6724 16.2461 25.6722 16.2462 26.2222 16.9445C26.7722 17.6428 26.7721 17.6429 26.7719 17.643L26.7731 17.6422L26.7838 17.6339C26.7941 17.626 26.8107 17.6134 26.8329 17.5968C26.8776 17.5635 26.9447 17.5145 27.0301 17.4552C27.2018 17.3358 27.4421 17.1783 27.7171 17.0244C28.3149 16.6897 28.8967 16.4759 29.2811 16.4985C29.483 16.5104 29.6231 16.6201 30.0684 17.0333L30.0784 17.0425C30.4424 17.3803 31.119 18.0081 32.159 17.8191C32.9206 17.6806 33.337 17.1748 33.5693 16.8926L33.5827 16.8764C33.8456 16.5574 33.9143 16.4974 34.0275 16.4643Z" fill="#FA7800"/>
    </g>
    <defs>
        <clipPath id="clip0_64_1010">
            <rect width="48" height="48" fill="white" transform="translate(0 0.5)"/>
        </clipPath>
    </defs>
</svg>
