<svg width="48" height="49" viewBox="0 0 48 49" fill="none" xmlns="http://www.w3.org/2000/svg">
    <path fill-rule="evenodd" clip-rule="evenodd" d="M18.6044 15.6111C18.6044 15.0837 18.448 14.5681 18.155 14.1296C17.862 13.6911 17.4455 13.3493 16.9583 13.1474C16.471 12.9456 15.9348 12.8928 15.4175 12.9957C14.9003 13.0986 14.4251 13.3526 14.0522 13.7255C13.6792 14.0984 13.4252 14.5736 13.3223 15.0909C13.2195 15.6082 13.2723 16.1443 13.4741 16.6316C13.6759 17.1189 14.0177 17.5353 14.4563 17.8284C14.8948 18.1214 15.4104 18.2778 15.9378 18.2778C16.645 18.2778 17.3233 17.9968 17.8234 17.4967C18.3235 16.9966 18.6044 16.3184 18.6044 15.6111ZM14.5156 15.6111C14.5156 15.3298 14.599 15.0549 14.7552 14.821C14.9115 14.5871 15.1336 14.4048 15.3935 14.2972C15.6534 14.1895 15.9394 14.1613 16.2152 14.2162C16.4911 14.2711 16.7445 14.4065 16.9434 14.6055C17.1423 14.8044 17.2778 15.0578 17.3327 15.3337C17.3875 15.6095 17.3594 15.8955 17.2517 16.1554C17.1441 16.4153 16.9618 16.6374 16.7279 16.7936C16.494 16.9499 16.2191 17.0333 15.9378 17.0333C15.5606 17.0333 15.1988 16.8835 14.9321 16.6168C14.6654 16.3501 14.5156 15.9883 14.5156 15.6111Z" fill="#FA7800"/>
    <path d="M19.8933 19.7807L23.4489 23.3363L28.2489 18.5363C28.4154 18.3707 28.6407 18.2778 28.8756 18.2778C29.1104 18.2778 29.3357 18.3707 29.5022 18.5363L34.6667 23.7007V26.2074L28.8445 20.4118L21.3333 27.9229H18.8889L22.2222 24.5896L19.2978 21.7096L13.2622 27.7451V25.2296L18.64 19.7807C18.8066 19.6151 19.0318 19.5222 19.2667 19.5222C19.5015 19.5222 19.7268 19.6151 19.8933 19.7807Z" fill="#FA7800"/>
    <path fill-rule="evenodd" clip-rule="evenodd" d="M8.88889 0.5H16V2.27778H13.3333V4.94444H23.1111V2.27778H20.4444V0.5H27.5556V2.27778H24.8889V4.94444H34.6667V2.27778H32V0.5H39.1111V2.27778H36.4444V4.94444H44.4444C46.4081 4.94444 48 6.53632 48 8.5V31.6111C48 33.5748 46.4081 35.1667 44.4444 35.1667H39.1111V48.5H32.8889V35.1667H15.1111V48.5H8.88889V35.1667H3.55556C1.59188 35.1667 0 33.5748 0 31.6111V8.5C0 6.53632 1.59188 4.94444 3.55556 4.94444H11.5556V2.27778H8.88889V0.5ZM44.4444 6.72222H3.55556C2.57372 6.72222 1.77778 7.51816 1.77778 8.5V31.6111C1.77778 32.5929 2.57372 33.3889 3.55556 33.3889H44.4444C45.4263 33.3889 46.2222 32.5929 46.2222 31.6111V8.5C46.2222 7.51816 45.4263 6.72222 44.4444 6.72222ZM37.3333 35.1667H34.6667V46.7222H37.3333V35.1667ZM10.6667 35.1667H13.3333V46.7222H10.6667V35.1667Z" fill="#FA7800"/>
</svg>
