<svg width="48" height="48" viewBox="0 0 48 48" fill="none" xmlns="http://www.w3.org/2000/svg">
    <path d="M45.8442 2.58885C44.7475 1.49983 43.2647 0.888672 41.7192 0.888672C40.1737 0.888672 38.6908 1.49983 37.5942 2.58885C37.5942 2.60968 37.5733 2.60968 37.5733 2.63051L26.1358 15.3597C26.0593 15.4457 25.9665 15.5157 25.8628 15.5657C25.7591 15.6158 25.6466 15.6449 25.5317 15.6513C25.416 15.6542 25.3009 15.6335 25.1935 15.5905C25.0861 15.5475 24.9885 15.4832 24.9067 15.4013L22.99 13.4847C22.6048 13.0979 22.147 12.791 21.6429 12.5816C21.1388 12.3722 20.5984 12.2644 20.0525 12.2644C19.5066 12.2644 18.9662 12.3722 18.4621 12.5816C17.958 12.791 17.5002 13.0979 17.115 13.4847L1.13584 29.4638C1.05772 29.5396 0.995605 29.6303 0.953189 29.7305C0.910773 29.8307 0.888916 29.9384 0.888916 30.0472C0.888916 30.156 0.910773 30.2637 0.953189 30.3639C0.995605 30.4641 1.05772 30.5548 1.13584 30.6305L17.8025 47.2972C17.8783 47.3753 17.9689 47.4374 18.0691 47.4798C18.1693 47.5222 18.277 47.5441 18.3858 47.5441C18.4947 47.5441 18.6024 47.5222 18.7026 47.4798C18.8028 47.4374 18.8934 47.3753 18.9692 47.2972L34.9483 31.318C35.3351 30.9328 35.642 30.475 35.8514 29.9709C36.0608 29.4669 36.1686 28.9264 36.1686 28.3805C36.1686 27.8347 36.0608 27.2942 35.8514 26.7901C35.642 26.286 35.3351 25.8282 34.9483 25.443L33.0317 23.5263C32.949 23.4454 32.8841 23.3482 32.841 23.2408C32.798 23.1334 32.7778 23.0182 32.7817 22.9026C32.7857 22.787 32.8136 22.6734 32.8638 22.5692C32.914 22.465 32.9854 22.3723 33.0733 22.2972L45.8025 10.8597H45.8442C46.9395 9.76215 47.5547 8.27488 47.5547 6.72426C47.5547 5.17365 46.9395 3.68638 45.8442 2.58885ZM18.3858 45.5264L14.2608 41.4222L20.1775 35.5055C20.335 35.348 20.4234 35.1345 20.4234 34.9118C20.4234 34.6891 20.335 34.4755 20.1775 34.318C20.02 34.1605 19.8065 34.0721 19.5838 34.0721C19.3611 34.0721 19.1475 34.1605 18.99 34.318L13.0942 40.2347L8.4275 35.5889L14.3442 29.6722C14.5016 29.5147 14.5901 29.3011 14.5901 29.0784C14.5901 28.8557 14.5016 28.6422 14.3442 28.4847C14.1867 28.3272 13.9731 28.2387 13.7504 28.2387C13.5277 28.2387 13.3141 28.3272 13.1567 28.4847L7.26084 34.4013L2.90667 30.0472L13.3858 19.568L28.865 35.0472L18.3858 45.5264ZM44.6775 9.65135L31.9483 21.068C31.6969 21.2959 31.4936 21.5718 31.3504 21.8795C31.2073 22.1873 31.1273 22.5205 31.115 22.8597C31.1097 23.2001 31.1735 23.538 31.3024 23.8531C31.4313 24.1682 31.6227 24.4539 31.865 24.693L33.7817 26.6097C34.2473 27.0814 34.5084 27.7176 34.5084 28.3805C34.5084 29.0434 34.2473 29.6796 33.7817 30.1513L30.0525 33.8597L14.5733 18.3805L18.2817 14.6513C18.7534 14.1857 19.3896 13.9246 20.0525 13.9246C20.7154 13.9246 21.3516 14.1857 21.8233 14.6513L23.74 16.568C23.9761 16.8144 24.2612 17.0084 24.5771 17.1376C24.8929 17.2668 25.2323 17.3283 25.5733 17.318C25.9125 17.3058 26.2458 17.2257 26.5535 17.0826C26.8612 16.9395 27.1371 16.7362 27.365 16.4847L38.7817 3.75551C39.5635 2.97368 40.6239 2.53445 41.7296 2.53445C42.8353 2.53445 43.8957 2.97368 44.6775 3.75551C45.4593 4.53735 45.8986 5.59775 45.8986 6.70343C45.8986 7.80911 45.4593 8.86951 44.6775 9.65135Z" fill="#FA7800"/>
</svg>
