<svg width="48" height="48" viewBox="0 0 48 48" fill="none" xmlns="http://www.w3.org/2000/svg">
    <path fill-rule="evenodd" clip-rule="evenodd" d="M1.96893 0.338176C2.1375 0.124607 2.39459 0 2.66667 0H46.1842C46.5353 0 46.8534 0.206639 46.9962 0.527367C47.139 0.848095 47.0796 1.22282 46.8447 1.48371L44.2962 4.31385L45.3311 18.8109C45.3393 18.9261 45.325 19.0418 45.2889 19.1516L39.9556 35.3885C39.8326 35.7628 39.4779 36.0116 39.0841 35.9996C38.6902 35.9876 38.3513 35.7178 38.2513 35.3367L36.4562 28.4936C36.4486 28.4644 36.4424 28.4348 36.4378 28.4049L34.29 14.6259L29.5041 42.7982C29.4294 43.2379 29.0404 43.5542 28.5948 43.5376C28.1491 43.5211 27.7846 43.1768 27.7428 42.7328L25.5192 19.1452L21.8335 12.5813L18.6006 19.2148L16.3961 25.6225C16.2665 25.9993 15.9019 26.2438 15.5041 26.2207C15.1063 26.1977 14.7725 25.9127 14.6872 25.5235L11.6597 11.6978L7.75257 19.2813C7.58232 19.6117 7.22443 19.8014 6.85541 19.7566C6.48639 19.7119 6.18417 19.4422 6.09782 19.0807L1.8021 1.09539C1.73889 0.830754 1.80036 0.551746 1.96893 0.338176ZM3.79287 1.77778L7.27008 16.3362L11.2098 8.6893C11.3815 8.35612 11.7437 8.16642 12.1153 8.21503C12.4869 8.26365 12.7881 8.54015 12.8683 8.90627L15.746 22.0475L16.9372 18.585C16.949 18.5508 16.9629 18.5173 16.9787 18.4848L20.9787 10.2772C21.0437 10.144 21.1394 10.0318 21.255 9.94777L22.7202 5.91848C22.8879 5.45711 23.398 5.21911 23.8593 5.38688C24.3207 5.55464 24.5587 6.06466 24.3909 6.52602L22.8506 10.7618L27.1616 18.439C27.2224 18.5473 27.2598 18.6671 27.2715 18.7908L28.8802 35.856L33.4514 8.94754C33.5244 8.51793 33.898 8.20457 34.3338 8.20754C34.7695 8.21052 35.1389 8.52894 35.206 8.95951L38.1873 28.0863L39.2066 31.972L43.5454 18.763L42.496 4.06329C42.4788 3.82231 42.5604 3.58471 42.7221 3.40518L44.1876 1.77778H3.79287Z" fill="#FA7800"/>
    <path d="M16.6042 36.325L17.7847 37.0069C17.8765 37.0544 17.9576 37.12 18.0233 37.1998C18.089 37.2796 18.1378 37.3718 18.1668 37.471C18.1958 37.5701 18.2043 37.6741 18.192 37.7767C18.1796 37.8793 18.1466 37.9783 18.0949 38.0677C18.0432 38.1571 17.9739 38.2352 17.8911 38.297C17.8084 38.3589 17.714 38.4034 17.6136 38.4277C17.5132 38.4521 17.4089 38.4558 17.307 38.4387C17.2051 38.4216 17.1078 38.3839 17.0208 38.3281L15.8403 37.6465C15.7562 37.9422 15.7163 38.2486 15.7219 38.5559C15.7238 38.6562 15.7059 38.7559 15.6692 38.8493C15.6326 38.9427 15.5779 39.028 15.5082 39.1003C15.4386 39.1725 15.3555 39.2304 15.2635 39.2705C15.1715 39.3106 15.0725 39.3322 14.9722 39.334H14.9573C14.7571 39.3341 14.565 39.2555 14.4221 39.1153C14.2793 38.9752 14.1971 38.7845 14.1934 38.5844C14.1828 37.9987 14.2832 37.4164 14.4892 36.8681L11.4306 35.101V38.6326C12.0085 38.7282 12.5631 38.9323 13.0649 39.2344C13.2385 39.3389 13.3634 39.5082 13.4121 39.7048C13.4609 39.9015 13.4296 40.1094 13.325 40.283C13.2204 40.4565 13.0512 40.5814 12.8546 40.6302C12.6579 40.679 12.4499 40.6476 12.2764 40.5431C12.0133 40.3849 11.7283 40.2666 11.4306 40.192V41.3472C11.4306 41.5498 11.3501 41.7441 11.2068 41.8874C11.0636 42.0306 10.8693 42.1111 10.6667 42.1111C10.4641 42.1111 10.2698 42.0306 10.1265 41.8874C9.98326 41.7441 9.90278 41.5498 9.90278 41.3472V40.192C9.60506 40.2666 9.32002 40.3849 9.05695 40.5431C8.8834 40.6476 8.67543 40.679 8.47878 40.6302C8.28213 40.5814 8.1129 40.4565 8.00834 40.283C7.90377 40.1094 7.87242 39.9015 7.9212 39.7048C7.96997 39.5082 8.09486 39.3389 8.2684 39.2344C8.77028 38.9323 9.32486 38.7282 9.90278 38.6326V35.101L6.8441 36.8681C7.04985 37.4162 7.15 37.9983 7.13924 38.5837C7.13551 38.7838 7.05338 38.9745 6.91053 39.1147C6.76767 39.2548 6.5755 39.3334 6.37535 39.3333H6.36111C6.15875 39.3295 5.96618 39.2455 5.82569 39.0998C5.6852 38.9541 5.60827 38.7586 5.61181 38.5563C5.61715 38.2494 5.57714 37.9434 5.49306 37.6483L4.3125 38.3299C4.22556 38.3817 4.12919 38.4158 4.02897 38.4301C3.92876 38.4444 3.82671 38.4386 3.72874 38.4131C3.63078 38.3876 3.53886 38.3429 3.45833 38.2815C3.3778 38.2202 3.31026 38.1435 3.25964 38.0558C3.20902 37.9681 3.17633 37.8713 3.16347 37.7709C3.15061 37.6705 3.15783 37.5685 3.18472 37.4709C3.2116 37.3733 3.25762 37.2821 3.32009 37.2024C3.38256 37.1228 3.46024 37.0563 3.54861 37.0069L4.72986 36.3219C4.51616 36.1019 4.27116 35.9147 4.00278 35.7663C3.91408 35.7183 3.83577 35.6532 3.77238 35.5747C3.70898 35.4963 3.66174 35.406 3.6334 35.3092C3.60505 35.2124 3.59616 35.111 3.60723 35.0107C3.6183 34.9105 3.64912 34.8134 3.69791 34.7251C3.74669 34.6368 3.81247 34.5591 3.89146 34.4964C3.97045 34.4336 4.06108 34.3872 4.15812 34.3597C4.25516 34.3322 4.35669 34.3241 4.45684 34.3361C4.557 34.348 4.6538 34.3796 4.74167 34.4292C5.25421 34.7129 5.7084 35.091 6.08021 35.5438L9.13889 33.7778L6.07951 32.0122C5.7077 32.4649 5.25352 32.843 4.74097 33.1267C4.65311 33.1763 4.55631 33.2079 4.45615 33.2198C4.35599 33.2318 4.25446 33.2237 4.15743 33.1962C4.06039 33.1687 3.96976 33.1223 3.89077 33.0595C3.81178 32.9968 3.74599 32.9191 3.69721 32.8308C3.64843 32.7425 3.61761 32.6454 3.60654 32.5452C3.59547 32.4449 3.60436 32.3435 3.6327 32.2467C3.66105 32.1499 3.70828 32.0596 3.77168 31.9812C3.83508 31.9027 3.91339 31.8376 4.00208 31.7896C4.27046 31.6412 4.51547 31.454 4.72917 31.234L3.54861 30.5521C3.46024 30.5027 3.38256 30.4363 3.32009 30.3566C3.25762 30.277 3.2116 30.1857 3.18472 30.0881C3.15783 29.9905 3.15061 29.8885 3.16347 29.7881C3.17633 29.6877 3.20902 29.5909 3.25964 29.5032C3.31026 29.4156 3.3778 29.3388 3.45833 29.2775C3.53886 29.2162 3.63078 29.1714 3.72874 29.1459C3.82671 29.1204 3.92876 29.1147 4.02897 29.129C4.12919 29.1432 4.22556 29.1773 4.3125 29.2292L5.49306 29.909C5.57716 29.6134 5.61706 29.307 5.61146 28.9997C5.60957 28.8993 5.62747 28.7996 5.66412 28.7062C5.70078 28.6128 5.75548 28.5276 5.82509 28.4553C5.89471 28.383 5.97788 28.3252 6.06985 28.2851C6.16182 28.245 6.26079 28.2234 6.36111 28.2215H6.37604C6.5762 28.2215 6.76837 28.3 6.91122 28.4402C7.05408 28.5804 7.1362 28.7711 7.13993 28.9712C7.15056 29.5568 7.05018 30.1392 6.8441 30.6875L9.90278 32.4545V28.9229C9.32486 28.8274 8.77028 28.6232 8.2684 28.3212C8.09486 28.2166 7.96997 28.0474 7.9212 27.8507C7.87242 27.6541 7.90377 27.4461 8.00834 27.2726C8.1129 27.099 8.28213 26.9741 8.47878 26.9254C8.67543 26.8766 8.8834 26.9079 9.05695 27.0125C9.32002 27.1706 9.60506 27.2889 9.90278 27.3635V26.2083C9.90278 26.0057 9.98326 25.8114 10.1265 25.6682C10.2698 25.5249 10.4641 25.4444 10.6667 25.4444C10.8693 25.4444 11.0636 25.5249 11.2068 25.6682C11.3501 25.8114 11.4306 26.0057 11.4306 26.2083V27.3635C11.7283 27.2889 12.0133 27.1706 12.2764 27.0125C12.4499 26.9079 12.6579 26.8766 12.8546 26.9254C13.0512 26.9741 13.2204 27.099 13.325 27.2726C13.4296 27.4461 13.4609 27.6541 13.4121 27.8507C13.3634 28.0474 13.2385 28.2166 13.0649 28.3212C12.5631 28.6232 12.0085 28.8274 11.4306 28.9229V32.4545L14.4892 30.6875C14.2835 30.1394 14.1833 29.5573 14.1941 28.9719C14.1978 28.7718 14.28 28.5811 14.4228 28.4409C14.5657 28.3007 14.7578 28.2222 14.958 28.2222H14.9722C15.0727 28.2241 15.1719 28.2458 15.264 28.2861C15.3561 28.3264 15.4393 28.3845 15.5089 28.457C15.5785 28.5295 15.6331 28.615 15.6696 28.7087C15.7061 28.8023 15.7237 28.9023 15.7215 29.0028C15.7162 29.3096 15.7562 29.6156 15.8403 29.9108L17.0208 29.2292C17.1078 29.1751 17.2048 29.1392 17.306 29.1233C17.4071 29.1075 17.5104 29.1122 17.6098 29.1372C17.7091 29.1621 17.8024 29.2067 17.8841 29.2684C17.9658 29.3301 18.0343 29.4076 18.0855 29.4963C18.1367 29.585 18.1695 29.6831 18.182 29.7847C18.1945 29.8863 18.1865 29.9894 18.1584 30.0879C18.1303 30.1863 18.0826 30.2781 18.0183 30.3578C17.954 30.4375 17.8743 30.5035 17.784 30.5517L16.6035 31.2337C16.8172 31.4536 17.0622 31.6408 17.3306 31.7892C17.4193 31.8373 17.4976 31.9024 17.561 31.9808C17.6244 32.0593 17.6716 32.1495 17.6999 32.2463C17.7283 32.3431 17.7372 32.4446 17.7261 32.5448C17.715 32.6451 17.6842 32.7421 17.6354 32.8304C17.5866 32.9187 17.5209 32.9965 17.4419 33.0592C17.3629 33.1219 17.2723 33.1684 17.1752 33.1959C17.0782 33.2234 16.9767 33.2314 16.8765 33.2195C16.7763 33.2076 16.6795 33.1759 16.5917 33.1264C16.0791 32.8428 15.6248 32.4646 15.2531 32.0118L12.1944 33.7778L15.2538 35.5469C15.6256 35.0942 16.0798 34.716 16.5924 34.4323C16.7695 34.3364 16.9774 34.3143 17.1708 34.3709C17.3641 34.4275 17.5273 34.5582 17.6247 34.7346C17.7221 34.9109 17.746 35.1186 17.691 35.3124C17.6361 35.5062 17.5067 35.6705 17.3313 35.7694C17.0628 35.9178 16.8178 36.105 16.6042 36.325Z" fill="#FA7800"/>
</svg>
