<svg width="48" height="48" viewBox="0 0 48 48" fill="none" xmlns="http://www.w3.org/2000/svg">
    <path fill-rule="evenodd" clip-rule="evenodd" d="M46.5858 0.966617C47.0337 1.16738 47.2342 1.69329 47.0334 2.14129C46.1481 4.11684 43.9979 7.32086 40.4445 10.4323V21.3921C43.7061 21.8266 46.2222 24.6195 46.2222 28C46.2222 31.6819 43.2375 34.6667 39.5556 34.6667C35.8737 34.6667 32.8889 31.6819 32.8889 28C32.8889 24.6195 35.405 21.8266 38.6667 21.3921V11.8857C35.7469 14.1133 32.067 16.181 27.5729 17.5738C26.6715 17.8532 25.776 18.0982 24.8889 18.3117V28.8367C25.1583 28.9911 25.3935 29.2217 25.5608 29.5285L27.1958 32.5266C27.4515 32.9954 27.9045 33.3245 28.4294 33.4228L31.7859 34.0514C33.1691 34.3104 33.7173 35.9975 32.7505 37.0201L30.4045 39.5016C30.0376 39.8896 29.8646 40.4221 29.9333 40.9517L30.3727 44.3382C30.5538 45.7338 29.1187 46.7765 27.8474 46.173L24.7624 44.7086C24.28 44.4796 23.7201 44.4796 23.2377 44.7086L20.1527 46.173C18.8814 46.7765 17.4462 45.7338 17.6273 44.3382L18.0667 40.9517C18.1355 40.4221 17.9625 39.8896 17.5956 39.5016L15.2495 37.0201C14.2827 35.9975 14.8309 34.3104 16.2141 34.0514L19.5707 33.4228C20.0956 33.3245 20.5485 32.9954 20.8042 32.5266L22.4393 29.5285C22.6066 29.2217 22.8418 28.9911 23.1111 28.8367V18.7008C17.581 19.792 12.4641 19.7043 8.44447 19.1817V24.068C11.2134 24.4955 13.3334 26.8891 13.3334 29.7778C13.3334 32.9688 10.7466 39.1111 7.55558 39.1111C4.3646 39.1111 1.7778 32.9688 1.7778 29.7778C1.7778 26.8891 3.89772 24.4955 6.66669 24.068V18.9118C4.43066 18.522 2.64222 18.0129 1.45669 17.5536C0.998921 17.3763 0.771594 16.8614 0.948939 16.4037C1.12628 15.9459 1.64114 15.7186 2.09891 15.8959C5.72169 17.2994 15.9166 19.3253 27.0466 15.8757C38.1286 12.4411 43.9299 4.71953 45.4111 1.41427C45.6118 0.966282 46.1378 0.765858 46.5858 0.966617ZM24 30.6667C23.949 30.6667 23.899 30.6624 23.8504 30.6541L22.365 33.3778C21.8536 34.3155 20.9478 34.9736 19.8979 35.1702L16.5413 35.7988L18.8874 38.2802C19.6212 39.0564 19.9672 40.1212 19.8297 41.1805L19.3903 44.567L22.4753 43.1026C23.4402 42.6445 24.5599 42.6445 25.5248 43.1026L28.6098 44.567L28.1703 41.1805C28.0329 40.1212 28.3789 39.0564 29.1127 38.2802L31.4587 35.7988L28.1021 35.1702C27.0523 34.9736 26.1465 34.3155 25.6351 33.3778L24.1497 30.6541C24.101 30.6624 24.051 30.6667 24 30.6667ZM39.5556 23.1111C36.8555 23.1111 34.6667 25.2999 34.6667 28C34.6667 30.7001 36.8555 32.8889 39.5556 32.8889C42.2556 32.8889 44.4445 30.7001 44.4445 28C44.4445 25.2999 42.2556 23.1111 39.5556 23.1111ZM10.0771 34.7958C11.0196 33.0521 11.5556 31.0087 11.5556 29.7778C11.5556 27.5686 9.76472 25.7778 7.55558 25.7778C5.34644 25.7778 3.55558 27.5686 3.55558 29.7778C3.55558 31.0087 4.09158 33.0521 5.03403 34.7958C5.4968 35.652 6.00524 36.336 6.49965 36.7835C6.99856 37.2351 7.35169 37.3333 7.55558 37.3333C7.75947 37.3333 8.1126 37.2351 8.61151 36.7835C9.10593 36.336 9.61436 35.652 10.0771 34.7958Z" fill="#FA7800"/>
</svg>
