<svg width="48" height="48" viewBox="0 0 48 48" fill="none" xmlns="http://www.w3.org/2000/svg">
    <path d="M23.3844 0.247656C23.7284 -0.0825519 24.2716 -0.0825519 24.6156 0.247656L46.8378 21.581C47.192 21.921 47.2035 22.4837 46.8635 22.8378C46.5235 23.1919 45.9608 23.2034 45.6067 22.8635L24 2.12108L2.39339 22.8635C2.03925 23.2034 1.47655 23.1919 1.13657 22.8378C0.796595 22.4837 0.808079 21.921 1.16222 21.581L23.3844 0.247656Z" fill="#FA7800"/>
    <path fill-rule="evenodd" clip-rule="evenodd" d="M15.7347 20.0889C17.161 19.1554 18.83 18.6609 20.5347 18.6667C21.7171 18.6665 22.8877 18.9022 23.9779 19.3599C25.0681 19.8177 26.056 20.4884 26.8837 21.3328C27.7115 22.1771 28.3625 23.1781 28.7986 24.2771C29.2347 25.3762 29.4472 26.5512 29.4235 27.7334C29.4278 28.5117 29.3383 29.2876 29.1569 30.0445L35.1124 36.0001C35.9493 36.837 36.4195 37.972 36.4195 39.1556C36.4195 40.3392 35.9493 41.4743 35.1124 42.3112C34.2755 43.1481 33.1404 43.6182 31.9569 43.6182C30.7733 43.6182 29.6382 43.1481 28.8013 42.3112L22.8458 36.3556C22.0889 36.537 21.3129 36.6265 20.5347 36.6223C18.1565 36.6129 15.8784 35.664 14.1968 33.9824C12.5151 32.3008 11.5662 30.0227 11.5569 27.6445C11.5258 25.8402 12.0537 24.0704 13.068 22.5778L18.9347 28.2667C19.0963 28.4562 19.2942 28.6114 19.5168 28.7232C19.7393 28.835 19.982 28.9011 20.2305 28.9177C20.479 28.9342 20.7283 28.9009 20.9637 28.8196C21.1992 28.7384 21.4159 28.6108 21.6013 28.4445C21.7676 28.2591 21.8952 28.0423 21.9765 27.8069C22.0577 27.5715 22.0911 27.3222 22.0745 27.0737C22.0579 26.8252 21.9918 26.5825 21.88 26.36C21.7682 26.1374 21.613 25.9395 21.4235 25.7778L15.7347 20.0889ZM27.3791 29.5112C27.5547 28.9044 27.6445 28.2761 27.6458 27.6445C27.6422 25.6857 26.8772 23.8051 25.5124 22.4001C24.1489 21.093 22.3346 20.3609 20.4458 20.3556C19.8428 20.3505 19.2429 20.4405 18.668 20.6223L22.5791 24.5334C22.9387 24.8639 23.229 25.2626 23.4329 25.7064C23.6369 26.1502 23.7504 26.6302 23.767 27.1184C23.7835 27.6065 23.7027 28.093 23.5293 28.5496C23.3559 29.0062 23.0933 29.4238 22.7569 29.7778C22.4028 30.1143 21.9853 30.3768 21.5287 30.5503C21.0721 30.7237 20.5855 30.8045 20.0974 30.7879C19.6093 30.7714 19.1293 30.6578 18.6855 30.4539C18.2417 30.2499 17.8429 29.9597 17.5124 29.6001L13.6013 25.6889C13.4256 26.326 13.3359 26.9837 13.3347 27.6445C13.3169 28.5912 13.4975 29.531 13.8649 30.4037C14.2324 31.2763 14.7784 32.0623 15.468 32.7112C16.8315 34.0183 18.6458 34.7504 20.5347 34.7556C21.1663 34.7543 21.7946 34.6645 22.4013 34.4889L23.3791 34.2223L30.0458 40.8889C30.2865 41.1417 30.5761 41.343 30.897 41.4805C31.2179 41.618 31.5633 41.6889 31.9124 41.6889C32.2615 41.6889 32.607 41.618 32.9279 41.4805C33.2487 41.343 33.5383 41.1417 33.7791 40.8889C34.0398 40.6544 34.2465 40.366 34.3846 40.0437C34.5227 39.7213 34.5891 39.3728 34.5791 39.0223C34.5801 38.673 34.5097 38.3272 34.3721 38.0062C34.2345 37.6852 34.0327 37.3957 33.7791 37.1556L27.1124 30.4889L27.3791 29.5112Z" fill="#FA7800"/>
    <path fill-rule="evenodd" clip-rule="evenodd" d="M24.612 5.13308L43.2786 22.8516C43.4555 23.0194 43.5556 23.2525 43.5556 23.4963V46.6667C43.5556 47.1576 43.1576 47.5556 42.6667 47.5556H5.33336C4.84244 47.5556 4.44447 47.1576 4.44447 46.6667V23.4963C4.44447 23.2525 4.5446 23.0194 4.72141 22.8516L23.3881 5.13308C23.7311 4.80749 24.269 4.80749 24.612 5.13308ZM6.22225 23.8781V45.7778H41.7778V23.8781L24 7.00335L6.22225 23.8781Z" fill="#FA7800"/>
</svg>
