<svg width="48" height="48" viewBox="0 0 48 48" fill="none" xmlns="http://www.w3.org/2000/svg">
    <path fill-rule="evenodd" clip-rule="evenodd" d="M33.8263 16.2512C34.0337 16.1141 34.204 15.9275 34.3216 15.7078C34.4497 15.4686 34.5105 15.1992 34.4975 14.9281C34.4846 14.6571 34.3983 14.3947 34.248 14.1688L25.248 0.668813C25.111 0.463377 24.9254 0.294933 24.7077 0.178433C24.49 0.0619318 24.2469 0.000976562 24 0.000976562C23.7531 0.000976562 23.51 0.0619318 23.2923 0.178433C23.0746 0.294933 22.889 0.463377 22.752 0.668813L13.752 14.1688C13.6017 14.3947 13.5155 14.6571 13.5025 14.9281C13.4895 15.1992 13.5503 15.4686 13.6784 15.7078C13.796 15.9276 13.9665 16.1142 14.1739 16.2513C14.1922 16.2634 14.2108 16.2751 14.2297 16.2865C14.4625 16.4259 14.7287 16.4997 15 16.4998H16.1829L9.22801 26.2048C9.0861 26.4319 9.00755 26.6928 9.00052 26.9604C8.9935 27.2281 9.05824 27.4928 9.18804 27.727C9.31784 27.9612 9.50797 28.1563 9.73867 28.2922C9.80884 28.3336 9.88199 28.369 9.95735 28.3982C10.1297 28.4651 10.3137 28.4998 10.5 28.4998H11.9619L6.15901 38.3278C6.04442 38.5565 5.99021 38.8107 6.00153 39.0662C6.01286 39.3218 6.08935 39.5702 6.22373 39.7878C6.3581 40.0055 6.54591 40.1852 6.76929 40.3098C6.99268 40.4344 7.24422 40.4998 7.50001 40.4998H21V47.9998H27V40.4998H40.5C40.7558 40.4998 41.0073 40.4344 41.2307 40.3098C41.4541 40.1852 41.6419 40.0055 41.7763 39.7878C41.9107 39.5702 41.9872 39.3218 41.9985 39.0662C42.0098 38.8107 41.9556 38.5565 41.841 38.3278L36.0411 28.4998H37.503C37.6893 28.4998 37.8731 28.4651 38.0455 28.3983C38.1209 28.369 38.1941 28.3336 38.2643 28.2922C38.4951 28.1563 38.6852 27.9612 38.815 27.727C38.9448 27.4928 39.0095 27.2281 39.0025 26.9604C38.9955 26.6928 38.9169 26.4319 38.775 26.2048L31.8171 16.4998H33C33.2713 16.4997 33.5375 16.4259 33.7703 16.2865C33.7892 16.2751 33.8079 16.2633 33.8263 16.2512ZM32.4802 14.722L24 2.00175L15.5198 14.722H19.644L11.0445 26.722H15.0761L7.99078 38.722H22.7778V46.222H25.2222V38.722H40.0094L32.9277 26.722H36.9584L28.3551 14.722H32.4802Z" fill="#FA7800"/>
</svg>
