<svg width="46" height="49" viewBox="0 0 46 49" fill="none" xmlns="http://www.w3.org/2000/svg">
    <path d="M27.7778 27.5H24.7778V30.5H27.7778V27.5Z" fill="#FA7800"/>
    <path d="M33.7778 27.5H30.7778V30.5H33.7778V27.5Z" fill="#FA7800"/>
    <path d="M27.7778 33.5H24.7778V36.5H27.7778V33.5Z" fill="#FA7800"/>
    <path d="M33.7778 33.5H30.7778V36.5H33.7778V33.5Z" fill="#FA7800"/>
    <path d="M39.7778 27.5H36.7778V30.5H39.7778V27.5Z" fill="#FA7800"/>
    <path d="M39.7778 33.5H36.7778V36.5H39.7778V33.5Z" fill="#FA7800"/>
    <path d="M27.7778 21.5H24.7778V24.5H27.7778V21.5Z" fill="#FA7800"/>
    <path d="M33.7778 21.5H30.7778V24.5H33.7778V21.5Z" fill="#FA7800"/>
    <path d="M39.7778 21.5H36.7778V24.5H39.7778V21.5Z" fill="#FA7800"/>
    <path d="M27.7778 15.5H24.7778V18.5H27.7778V15.5Z" fill="#FA7800"/>
    <path d="M33.7778 15.5H30.7778V18.5H33.7778V15.5Z" fill="#FA7800"/>
    <path d="M39.7778 15.5H36.7778V18.5H39.7778V15.5Z" fill="#FA7800"/>
    <path d="M39.7778 9.5H36.7778V12.5H39.7778V9.5Z" fill="#FA7800"/>
    <path d="M8.88894 33.5H5.88894V36.5H8.88894V33.5Z" fill="#FA7800"/>
    <path d="M14.8889 33.5H11.8889V36.5H14.8889V33.5Z" fill="#FA7800"/>
    <path d="M8.88894 39.5H5.88894V42.5H8.88894V39.5Z" fill="#FA7800"/>
    <path d="M14.8889 39.5H11.8889V42.5H14.8889V39.5Z" fill="#FA7800"/>
    <path fill-rule="evenodd" clip-rule="evenodd" d="M18.5556 14.693V22.4556L2.08737 28.2194C1.30302 28.494 0.777832 29.2342 0.777832 30.0652V48.5L29.2223 48.5V44.0556C29.2223 43.5646 29.6202 43.1667 30.1112 43.1667H33.6667C34.1576 43.1667 34.5556 43.5646 34.5556 44.0556V48.5H45.2223V2.2912C45.2223 0.940851 43.7921 0.0774516 42.6079 0.712909L19.4968 13.1148C18.9175 13.4256 18.5556 14.0324 18.5556 14.693ZM43.4444 3.02421C43.4442 2.68831 43.0858 2.47403 42.7898 2.63286L20.3374 14.6812L20.3359 14.6833C20.3349 14.6848 20.3342 14.6865 20.3338 14.6887L20.3334 14.693V46.7222H27.4445V44.0556C27.4445 42.5828 28.6384 41.3889 30.1112 41.3889H33.6667C35.1395 41.3889 36.3334 42.5828 36.3334 44.0556V46.7222H43.4445C43.4445 41.886 43.4454 37.0498 43.4463 32.2135V32.2003C43.4482 22.4749 43.45 12.7495 43.4444 3.02421ZM2.67466 29.8974L18.5556 24.3391V46.7222H2.55561V30.0652C2.55561 29.9897 2.60335 29.9224 2.67466 29.8974Z" fill="#FA7800"/>
</svg>
