<svg width="48" height="49" viewBox="0 0 48 49" fill="none" xmlns="http://www.w3.org/2000/svg">
    <path d="M38.2222 15.611C38.2222 16.1019 37.8243 16.4999 37.3334 16.4999C36.8424 16.4999 36.4445 16.1019 36.4445 15.611C36.4445 15.1201 36.8424 14.7221 37.3334 14.7221C37.8243 14.7221 38.2222 15.1201 38.2222 15.611Z" fill="#FA7800"/>
    <path fill-rule="evenodd" clip-rule="evenodd" d="M19.4802 3.49371C17.6349 2.8221 15.5946 3.77352 14.923 5.61877L11.8828 13.9716C11.2112 15.8169 12.1626 17.8572 14.0078 18.5288L20.9352 21.0502L15.0799 29.8332H7.11114V24.4999C7.11114 22.5362 5.51926 20.9443 3.55558 20.9443H0.888916V44.0554H3.55558C5.51926 44.0554 7.11114 42.4635 7.11114 40.4999V34.2777H17.3646L25.1583 22.5872L34.9513 26.1516C35.6228 26.396 36.3754 26.2146 36.8618 25.691L38.1857 24.2659L43.0022 26.0189L46.3464 16.8308L45.4093 16.4897L47.8798 13.8303L19.4802 3.49371ZM44.753 14.5842L18.8721 5.16428C17.9495 4.82847 16.9293 5.30418 16.5935 6.22681L14.41 12.226L38.7231 21.0752L44.753 14.5842ZM37.4097 22.4891L13.802 13.8965L13.5533 14.5796C13.2175 15.5023 13.6932 16.5224 14.6159 16.8582L35.5593 24.481L37.4097 22.4891ZM23.4389 21.9614L22.6547 21.676L16.0313 31.611H7.11114V32.4999H16.4132L23.4389 21.9614ZM41.9396 23.7403L39.4991 22.852L44.0435 17.96L41.9396 23.7403ZM2.66669 22.7221H3.55558C4.53742 22.7221 5.33336 23.518 5.33336 24.4999V40.4999C5.33336 41.4817 4.53742 42.2776 3.55558 42.2776H2.66669V22.7221Z" fill="#FA7800"/>
</svg>
