<svg width="48" height="49" viewBox="0 0 48 49" fill="none" xmlns="http://www.w3.org/2000/svg">
    <path d="M23.1111 0.5V4.94444H24.8889V0.5H23.1111Z" fill="#FA7800"/>
    <path d="M23.1111 24.5V28.9444H24.8889V24.5H23.1111Z" fill="#FA7800"/>
    <path d="M14.2222 13.8333H9.77778V15.6111H14.2222V13.8333Z" fill="#FA7800"/>
    <path d="M38.2222 13.8333H33.7778V15.6111H38.2222V13.8333Z" fill="#FA7800"/>
    <path d="M16.4575 21.0076L13.3148 24.1503L14.5719 25.4074L17.7146 22.2647L16.4575 21.0076Z" fill="#FA7800"/>
    <path d="M33.4281 4.03702L30.2854 7.17972L31.5425 8.4368L34.6852 5.2941L33.4281 4.03702Z" fill="#FA7800"/>
    <path d="M17.7146 7.1797L14.5719 4.037L13.3148 5.29408L16.4575 8.43678L17.7146 7.1797Z" fill="#FA7800"/>
    <path d="M34.6852 24.1503L31.5425 21.0076L30.2854 22.2646L33.4281 25.4073L34.6852 24.1503Z" fill="#FA7800"/>
    <path fill-rule="evenodd" clip-rule="evenodd" d="M0 48.5L7.11111 31.6111H40.8889L48 48.5H0ZM6.0459 38.7222L8.29151 33.3889H17.6242L17.0316 38.7222H6.0459ZM5.29736 40.5L2.67748 46.7222H16.1427L16.834 40.5H5.29736ZM18.6228 40.5L17.9314 46.7222H30.0686L29.3773 40.5H18.6228ZM31.166 40.5L31.8573 46.7222H45.3225L42.7026 40.5H31.166ZM41.9541 38.7222H30.9684L30.3758 33.3889H39.7085L41.9541 38.7222ZM29.1797 38.7222H18.8203L19.4129 33.3889H28.5871L29.1797 38.7222Z" fill="#FA7800"/>
    <path fill-rule="evenodd" clip-rule="evenodd" d="M32 14.7222C32 19.1405 28.4183 22.7222 24 22.7222C19.5817 22.7222 16 19.1405 16 14.7222C16 10.3039 19.5817 6.72222 24 6.72222C28.4183 6.72222 32 10.3039 32 14.7222ZM30.2222 14.7222C30.2222 18.1587 27.4364 20.9444 24 20.9444C20.5636 20.9444 17.7778 18.1587 17.7778 14.7222C17.7778 11.2858 20.5636 8.5 24 8.5C27.4364 8.5 30.2222 11.2858 30.2222 14.7222Z" fill="#FA7800"/>
</svg>
