<svg width="55" height="54" viewBox="0 0 55 54" fill="none" xmlns="http://www.w3.org/2000/svg">
    <path d="M7.7735 15L3 22H6.7735V46.7735H4C3.44772 46.7735 3 47.2212 3 47.7735C3 48.3258 3.44772 48.7735 4 48.7735H6.7735V51.5C6.7735 52.0523 7.22122 52.5 7.7735 52.5C8.32579 52.5 8.7735 52.0523 8.7735 51.5V48.7735H44.5V52.547L51.5 47.7735L44.5 43V46.7735L8.7735 46.7735V22H12.547L7.7735 15Z" fill="#555555"/>
    <path d="M5.63834 12.6562H3.85608L3.85608 7.77664L3.87338 6.97491L3.90222 6.09821C3.60614 6.39429 3.40042 6.58847 3.28506 6.68076L2.31607 7.45941L1.45667 6.3866L4.17331 4.22366L5.63834 4.22366L5.63834 12.6562Z" fill="#FA7800"/>
    <path d="M13.8748 12.6562H7.98007L7.98007 11.4161L10.0969 9.27628C10.7236 8.63412 11.1331 8.19 11.3254 7.94391C11.5177 7.69397 11.6561 7.46326 11.7407 7.25177C11.8253 7.04028 11.8676 6.82111 11.8676 6.59424C11.8676 6.25586 11.7734 6.004 11.585 5.83865C11.4004 5.67331 11.1524 5.59064 10.8409 5.59064C10.5141 5.59064 10.1968 5.66562 9.88922 5.81558C9.5816 5.96555 9.26053 6.17896 8.92599 6.45581L7.957 5.30801C8.37228 4.95425 8.71643 4.70432 8.98944 4.5582C9.26245 4.41208 9.56046 4.30057 9.88345 4.22366C10.2065 4.14291 10.5679 4.10254 10.9678 4.10254C11.4946 4.10254 11.9599 4.19867 12.3636 4.39093C12.7674 4.58319 13.0807 4.85236 13.3038 5.19843C13.5268 5.54449 13.6383 5.94055 13.6383 6.3866C13.6383 6.77496 13.5691 7.14026 13.4307 7.48248C13.2961 7.82086 13.0846 8.16885 12.7962 8.52646C12.5117 8.88406 12.0079 9.39355 11.285 10.0549L10.2007 11.0758V11.1566H13.8748V12.6562Z" fill="#FA7800"/>
    <path d="M24.0204 12.6562H22.2612V8.88983C22.2612 8.42456 22.1824 8.07657 22.0247 7.84586C21.8709 7.6113 21.6267 7.49402 21.2922 7.49402C20.8423 7.49402 20.5155 7.65936 20.3117 7.99005C20.1079 8.32074 20.006 8.86484 20.006 9.62234V12.6562H18.2468V6.20779L19.5907 6.20779L19.8272 7.03259H19.9252C20.0983 6.73651 20.3482 6.5058 20.675 6.34045C21.0019 6.17126 21.3768 6.08667 21.7998 6.08667C22.7649 6.08667 23.4186 6.40198 23.7608 7.03259H23.9166C24.0896 6.73267 24.3434 6.50003 24.6779 6.33469C25.0163 6.16934 25.397 6.08667 25.8199 6.08667C26.5505 6.08667 27.1023 6.27509 27.4753 6.65192C27.8521 7.0249 28.0406 7.62476 28.0406 8.45148V12.6562H26.2756V8.88983C26.2756 8.42456 26.1968 8.07657 26.0391 7.84586C25.8853 7.6113 25.6411 7.49402 25.3066 7.49402C24.8759 7.49402 24.5529 7.64783 24.3376 7.95544C24.1261 8.26306 24.0204 8.7514 24.0204 9.42047V12.6562Z" fill="#FA7800"/>
    <path d="M30.7045 37.7618C30.7045 36.093 31.0563 34.851 31.76 34.0358C32.4675 33.2206 33.5249 32.813 34.9323 32.813C35.4129 32.813 35.7898 32.8418 36.0628 32.8995V34.3242C35.7206 34.2473 35.3822 34.2088 35.0476 34.2088C34.4362 34.2088 33.9364 34.3011 33.548 34.4857C33.1635 34.6702 32.8751 34.9432 32.6828 35.3047C32.4906 35.6661 32.3771 36.1795 32.3425 36.8447H32.4175C32.7982 36.191 33.4077 35.8642 34.2459 35.8642C34.9996 35.8642 35.5898 36.1006 36.0166 36.5736C36.4435 37.0466 36.6569 37.7003 36.6569 38.5347C36.6569 39.4344 36.4031 40.1477 35.8955 40.6745C35.3879 41.1975 34.6843 41.459 33.7845 41.459C33.1616 41.459 32.6175 41.3148 32.1522 41.0264C31.6908 40.738 31.3332 40.3169 31.0794 39.7632C30.8294 39.2095 30.7045 38.5424 30.7045 37.7618ZM33.7499 40.0343C34.1306 40.0343 34.4228 39.9074 34.6266 39.6536C34.8304 39.396 34.9323 39.0307 34.9323 38.5577C34.9323 38.1463 34.8362 37.8233 34.6439 37.5887C34.4555 37.3503 34.169 37.2311 33.7845 37.2311C33.423 37.2311 33.1135 37.3484 32.8559 37.583C32.6021 37.8175 32.4752 38.0905 32.4752 38.402C32.4752 38.8596 32.5944 39.246 32.8328 39.5613C33.075 39.8766 33.3807 40.0343 33.7499 40.0343Z" fill="#FA7800"/>
    <path d="M46.8025 41.3436H45.0433V37.5772C45.0433 37.1119 44.9644 36.7639 44.8068 36.5332C44.653 36.2987 44.4088 36.1814 44.0743 36.1814C43.6244 36.1814 43.2975 36.3467 43.0938 36.6774C42.89 37.0081 42.7881 37.5522 42.7881 38.3097V41.3436H41.0289V34.8952H42.3728L42.6093 35.72H42.7073C42.8803 35.4239 43.1303 35.1932 43.4571 35.0278C43.784 34.8586 44.1589 34.774 44.5818 34.774C45.547 34.774 46.2007 35.0894 46.5429 35.72H46.6986C46.8717 35.42 47.1255 35.1874 47.46 35.0221C47.7984 34.8567 48.179 34.774 48.602 34.774C49.3326 34.774 49.8844 34.9625 50.2574 35.3393C50.6342 35.7123 50.8226 36.3121 50.8226 37.1389V41.3436H49.0577V37.5772C49.0577 37.1119 48.9789 36.7639 48.8212 36.5332C48.6674 36.2987 48.4232 36.1814 48.0887 36.1814C47.658 36.1814 47.335 36.3352 47.1197 36.6428C46.9082 36.9504 46.8025 37.4388 46.8025 38.1078V41.3436Z" fill="#FA7800"/>
</svg>
