<svg width="55" height="54" viewBox="0 0 55 54" fill="none" xmlns="http://www.w3.org/2000/svg">
    <path d="M8.90042 36.131H7.11816V31.2514L7.13547 30.4497L7.16431 29.573C6.86823 29.869 6.66251 30.0632 6.54715 30.1555L5.57816 30.9342L4.71875 29.8614L7.43539 27.6984H8.90042V36.131Z" fill="#FA7800"/>
    <path d="M19.8766 29.5845C19.8766 30.1113 19.717 30.5593 19.3979 30.9284C19.0787 31.2975 18.6307 31.5513 18.054 31.6898V31.7244C18.7346 31.809 19.2498 32.0166 19.5997 32.3473C19.9496 32.6741 20.1246 33.1163 20.1246 33.6739C20.1246 34.4852 19.8304 35.1178 19.2421 35.5715C18.6538 36.0214 17.8136 36.2463 16.7216 36.2463C15.8064 36.2463 14.9951 36.0945 14.2876 35.7907V34.2737C14.6144 34.4391 14.9739 34.5737 15.3661 34.6775C15.7584 34.7813 16.1467 34.8332 16.5312 34.8332C17.1196 34.8332 17.5541 34.7332 17.8348 34.5333C18.1155 34.3333 18.2558 34.0123 18.2558 33.5701C18.2558 33.174 18.0943 32.8933 17.7713 32.728C17.4483 32.5626 16.9331 32.4799 16.2256 32.4799H15.5853V31.113H16.2371C16.8908 31.113 17.3676 31.0284 17.6675 30.8592C17.9713 30.6862 18.1232 30.392 18.1232 29.9767C18.1232 29.3384 17.7233 29.0193 16.9235 29.0193C16.6466 29.0193 16.364 29.0654 16.0756 29.1577C15.791 29.25 15.4738 29.4095 15.1239 29.6364L14.2991 28.4079C15.0681 27.8542 15.9852 27.5773 17.0504 27.5773C17.9232 27.5773 18.6115 27.7542 19.1152 28.1079C19.6228 28.4617 19.8766 28.9539 19.8766 29.5845Z" fill="#FA7800"/>
    <path d="M26.9076 31.9147C26.9076 33.3874 26.6653 34.4775 26.1808 35.1851C25.7002 35.8926 24.958 36.2463 23.9544 36.2463C22.9816 36.2463 22.2472 35.881 21.7511 35.1505C21.2589 34.4199 21.0128 33.3413 21.0128 31.9147C21.0128 30.4266 21.2532 29.3307 21.7338 28.627C22.2145 27.9195 22.9547 27.5658 23.9544 27.5658C24.9273 27.5658 25.6617 27.9349 26.1577 28.6732C26.6576 29.4115 26.9076 30.492 26.9076 31.9147ZM22.7836 31.9147C22.7836 32.9491 22.872 33.6912 23.0489 34.1411C23.2296 34.5871 23.5315 34.8102 23.9544 34.8102C24.3697 34.8102 24.6696 34.5833 24.8542 34.1295C25.0388 33.6758 25.1311 32.9375 25.1311 31.9147C25.1311 30.8803 25.0369 30.1382 24.8484 29.6883C24.6639 29.2346 24.3659 29.0077 23.9544 29.0077C23.5353 29.0077 23.2354 29.2346 23.0547 29.6883C22.8739 30.1382 22.7836 30.8803 22.7836 31.9147Z" fill="#FA7800"/>
    <path d="M33.6559 31.9147C33.6559 33.3874 33.4137 34.4775 32.9292 35.1851C32.4485 35.8926 31.7064 36.2463 30.7028 36.2463C29.7299 36.2463 28.9955 35.881 28.4995 35.1505C28.0073 34.4199 27.7612 33.3413 27.7612 31.9147C27.7612 30.4266 28.0015 29.3307 28.4822 28.627C28.9628 27.9195 29.703 27.5658 30.7028 27.5658C31.6756 27.5658 32.4101 27.9349 32.9061 28.6732C33.406 29.4115 33.6559 30.492 33.6559 31.9147ZM29.5319 31.9147C29.5319 32.9491 29.6204 33.6912 29.7972 34.1411C29.978 34.5871 30.2798 34.8102 30.7028 34.8102C31.1181 34.8102 31.418 34.5833 31.6026 34.1295C31.7871 33.6758 31.8794 32.9375 31.8794 31.9147C31.8794 30.8803 31.7852 30.1382 31.5968 29.6883C31.4122 29.2346 31.1142 29.0077 30.7028 29.0077C30.2837 29.0077 29.9837 29.2346 29.803 29.6883C29.6223 30.1382 29.5319 30.8803 29.5319 31.9147Z" fill="#FA7800"/>
    <path d="M39.764 32.6241L40.5312 31.6436L42.3365 29.6826H44.3206L41.7597 32.4799L44.4763 36.131H42.4461L40.5888 33.5182L39.8333 34.1238V36.131H38.0741V27.1562H39.8333V31.1591L39.741 32.6241H39.764Z" fill="#FA7800"/>
    <path d="M51.0113 29.6826V30.5766L50.0019 30.8361C50.1865 31.1245 50.2788 31.4475 50.2788 31.8051C50.2788 32.4973 50.0365 33.0375 49.552 33.4259C49.0714 33.8104 48.4023 34.0027 47.5448 34.0027L47.2276 33.9854L46.968 33.9565C46.7873 34.0949 46.697 34.2487 46.697 34.4179C46.697 34.6717 47.02 34.7986 47.666 34.7986H48.7618C49.4694 34.7986 50.0077 34.9505 50.3768 35.2543C50.7498 35.558 50.9363 36.0041 50.9363 36.5924C50.9363 37.3461 50.621 37.9305 49.9904 38.3458C49.3636 38.7611 48.4619 38.9688 47.2853 38.9688C46.3855 38.9688 45.6972 38.8111 45.2204 38.4958C44.7474 38.1843 44.511 37.746 44.511 37.1807C44.511 36.7924 44.6321 36.4674 44.8743 36.206C45.1166 35.9445 45.4723 35.758 45.9414 35.6465C45.7607 35.5696 45.603 35.4446 45.4684 35.2716C45.3338 35.0947 45.2665 34.9082 45.2665 34.7121C45.2665 34.466 45.3377 34.2622 45.4799 34.1007C45.6222 33.9354 45.8279 33.7739 46.0971 33.6162C45.7587 33.4701 45.4896 33.2355 45.2896 32.9125C45.0935 32.5895 44.9955 32.2089 44.9955 31.7705C44.9955 31.0668 45.2242 30.5227 45.6818 30.1382C46.1394 29.7537 46.7931 29.5614 47.6429 29.5614C47.8236 29.5614 48.037 29.5787 48.2831 29.6133C48.5331 29.6441 48.6926 29.6672 48.7618 29.6826H51.0113ZM46.0337 37.0423C46.0337 37.2845 46.149 37.4749 46.3797 37.6133C46.6143 37.7517 46.9411 37.821 47.3603 37.821C47.9909 37.821 48.485 37.7344 48.8426 37.5614C49.2002 37.3884 49.379 37.1519 49.379 36.852C49.379 36.6097 49.2733 36.4424 49.0618 36.3502C48.8503 36.2579 48.5234 36.2117 48.0812 36.2117H47.1699C46.8469 36.2117 46.5758 36.2867 46.3567 36.4367C46.1413 36.5905 46.0337 36.7924 46.0337 37.0423ZM46.6739 31.7936C46.6739 32.1435 46.7527 32.4203 46.9104 32.6241C47.0719 32.8279 47.316 32.9298 47.6429 32.9298C47.9736 32.9298 48.2158 32.8279 48.3696 32.6241C48.5234 32.4203 48.6003 32.1435 48.6003 31.7936C48.6003 31.0168 48.2812 30.6285 47.6429 30.6285C46.9969 30.6285 46.6739 31.0168 46.6739 31.7936Z" fill="#FA7800"/>
    <path fill-rule="evenodd" clip-rule="evenodd" d="M35.2483 15H39.8769C41.7123 15 43.3123 16.2492 43.7574 18.0299L45.25 24H43.1884L41.8171 18.5149C41.5946 17.6246 40.7946 17 39.8769 17H15.1231C14.2053 17 13.4054 17.6246 13.1828 18.5149L11.8115 24H9.74996L11.2425 18.0299C11.6877 16.2492 13.2876 15 15.1231 15H19.7517C19.2688 13.9326 19 12.7477 19 11.5C19 6.80558 22.8056 3 27.5 3C32.1944 3 36 6.80558 36 11.5C36 12.7477 35.7312 13.9326 35.2483 15ZM21 11.5C21 12.7886 21.375 13.9897 22.0218 15H32.9782C33.625 13.9897 34 12.7886 34 11.5C34 7.91015 31.0899 5 27.5 5C23.9101 5 21 7.91015 21 11.5Z" fill="#555555"/>
    <path d="M5.49996 41H7.56151L6.18278 46.5149C5.86721 47.7772 6.82192 49 8.12306 49H46.8769C48.178 49 49.1327 47.7772 48.8171 46.5149L47.4384 41H49.5L50.7574 46.0299C51.3886 48.5544 49.4791 51 46.8769 51H8.12306C5.52078 51 3.61135 48.5544 4.24249 46.0299L5.49996 41Z" fill="#555555"/>
</svg>
