<svg width="54" height="54" viewBox="0 0 54 54" fill="none" xmlns="http://www.w3.org/2000/svg">
    <path fill-rule="evenodd" clip-rule="evenodd" d="M38.3154 23.0707C38.908 24.1313 39.2344 25.3457 39.2344 26.6178V30.5437H51.4688V26.6178C51.4688 24.6358 50.2453 22.8741 48.4836 22.0911C46.4037 21.1857 44.1281 20.6719 41.6813 20.6719C40.8453 20.6719 40.0284 20.7355 39.2306 20.8563C38.4639 20.9723 37.7147 21.1411 36.9832 21.357C37.5135 21.8599 37.9618 22.4379 38.3154 23.0707ZM14.7694 20.8563C15.5361 20.9723 16.2853 21.1411 17.0167 21.357C16.4865 21.8599 16.0382 22.4379 15.6846 23.0707C15.092 24.1313 14.7656 25.3457 14.7656 26.6178V30.5437H2.53125V26.6178C2.53125 24.6358 3.75469 22.8741 5.51644 22.0911C7.59628 21.1857 9.87188 20.6719 12.3188 20.6719C13.1547 20.6719 13.9716 20.7355 14.7694 20.8563ZM13.6153 22.7304C13.1888 22.6917 12.7566 22.6719 12.3188 22.6719C10.1617 22.6719 8.15969 23.1229 6.32237 23.9215C5.24673 24.4025 4.53125 25.471 4.53125 26.6178V28.5437H12.7656V26.6178C12.7656 25.247 13.0641 23.9257 13.6153 22.7304ZM40.3847 22.7304C40.9359 23.9257 41.2344 25.247 41.2344 26.6178V28.5437H49.4688V26.6178C49.4688 25.471 48.7533 24.4026 47.6777 23.9215C45.8404 23.1229 43.8383 22.6719 41.6813 22.6719C41.2434 22.6719 40.8112 22.6917 40.3847 22.7304ZM41.6813 10.4375C40.0943 10.4375 38.7875 11.7443 38.7875 13.3312C38.7875 14.9182 40.0943 16.225 41.6813 16.225C43.2682 16.225 44.575 14.9182 44.575 13.3312C44.575 11.7443 43.2682 10.4375 41.6813 10.4375ZM12.3188 16.225C13.9057 16.225 15.2125 14.9182 15.2125 13.3312C15.2125 11.7443 13.9057 10.4375 12.3188 10.4375C10.7318 10.4375 9.425 11.7443 9.425 13.3312C9.425 14.9182 10.7318 16.225 12.3188 16.225ZM27 10.4375C25.413 10.4375 24.1063 11.7443 24.1063 13.3312C24.1063 14.9182 25.413 16.225 27 16.225C28.587 16.225 29.8937 14.9182 29.8937 13.3312C29.8937 11.7443 28.587 10.4375 27 10.4375ZM19.2125 28.5437V26.6178C19.2125 25.471 19.928 24.4025 21.0036 23.9215C22.8409 23.1229 24.843 22.6719 27 22.6719C29.157 22.6719 31.1591 23.1229 32.9964 23.9215C34.072 24.4025 34.7875 25.471 34.7875 26.6178V28.5437H19.2125ZM33.8023 22.0911C31.7225 21.1857 29.4469 20.6719 27 20.6719C24.5531 20.6719 22.2775 21.1857 20.1977 22.0911C18.4359 22.8741 17.2125 24.6358 17.2125 26.6178V30.5437H36.7875V26.6178C36.7875 24.6358 35.5641 22.8741 33.8023 22.0911ZM41.6813 8.4375C38.9897 8.4375 36.7875 10.6397 36.7875 13.3312C36.7875 16.0228 38.9897 18.225 41.6813 18.225C44.3728 18.225 46.575 16.0228 46.575 13.3312C46.575 10.6397 44.3728 8.4375 41.6813 8.4375ZM17.2125 13.3312C17.2125 16.0228 15.0103 18.225 12.3188 18.225C9.62719 18.225 7.425 16.0228 7.425 13.3312C7.425 10.6397 9.62719 8.4375 12.3188 8.4375C15.0103 8.4375 17.2125 10.6397 17.2125 13.3312ZM27 8.4375C24.3084 8.4375 22.1063 10.6397 22.1063 13.3312C22.1063 16.0228 24.3084 18.225 27 18.225C29.6916 18.225 31.8937 16.0228 31.8937 13.3312C31.8937 10.6397 29.6916 8.4375 27 8.4375Z" fill="#555555"/>
    <path d="M14.7088 45.5626H8.81409V44.3225L10.9309 42.1827C11.5576 41.5405 11.9672 41.0964 12.1594 40.8503C12.3517 40.6004 12.4901 40.3697 12.5747 40.1582C12.6593 39.9467 12.7016 39.7275 12.7016 39.5006C12.7016 39.1623 12.6074 38.9104 12.419 38.7451C12.2344 38.5797 11.9864 38.497 11.6749 38.497C11.3481 38.497 11.0309 38.572 10.7232 38.722C10.4156 38.8719 10.0945 39.0854 9.76001 39.3622L8.79102 38.2144C9.2063 37.8607 9.55045 37.6107 9.82346 37.4646C10.0965 37.3185 10.3945 37.207 10.7175 37.1301C11.0405 37.0493 11.4019 37.0089 11.8018 37.0089C12.3286 37.0089 12.7939 37.1051 13.1976 37.2973C13.6014 37.4896 13.9148 37.7588 14.1378 38.1048C14.3608 38.4509 14.4723 38.847 14.4723 39.293C14.4723 39.6814 14.4031 40.0467 14.2647 40.3889C14.1301 40.7273 13.9186 41.0753 13.6302 41.4329C13.3457 41.7905 12.8419 42.3 12.119 42.9613L11.0347 43.9822V44.063H14.7088V45.5626Z" fill="#FA7800"/>
    <path d="M21.411 41.3463C21.411 42.8191 21.1688 43.9092 20.6843 44.6167C20.2036 45.3242 19.4615 45.678 18.4579 45.678C17.485 45.678 16.7506 45.3127 16.2546 44.5821C15.7624 43.8515 15.5163 42.7729 15.5163 41.3463C15.5163 39.8582 15.7566 38.7624 16.2373 38.0587C16.7179 37.3512 17.4581 36.9974 18.4579 36.9974C19.4307 36.9974 20.1652 37.3665 20.6612 38.1048C21.1611 38.8431 21.411 39.9236 21.411 41.3463ZM17.287 41.3463C17.287 42.3807 17.3755 43.1228 17.5523 43.5727C17.7331 44.0188 18.0349 44.2418 18.4579 44.2418C18.8732 44.2418 19.1731 44.0149 19.3577 43.5612C19.5422 43.1075 19.6345 42.3692 19.6345 41.3463C19.6345 40.312 19.5403 39.5699 19.3519 39.12C19.1673 38.6662 18.8693 38.4394 18.4579 38.4394C18.0388 38.4394 17.7388 38.6662 17.5581 39.12C17.3774 39.5699 17.287 40.312 17.287 41.3463Z" fill="#FA7800"/>
    <path d="M28.1594 41.3463C28.1594 42.8191 27.9171 43.9092 27.4326 44.6167C26.952 45.3242 26.2098 45.678 25.2062 45.678C24.2334 45.678 23.499 45.3127 23.0029 44.5821C22.5107 43.8515 22.2646 42.7729 22.2646 41.3463C22.2646 39.8582 22.505 38.7624 22.9856 38.0587C23.4663 37.3512 24.2065 36.9974 25.2062 36.9974C26.1791 36.9974 26.9135 37.3665 27.4095 38.1048C27.9094 38.8431 28.1594 39.9236 28.1594 41.3463ZM24.0354 41.3463C24.0354 42.3807 24.1238 43.1228 24.3007 43.5727C24.4814 44.0188 24.7833 44.2418 25.2062 44.2418C25.6215 44.2418 25.9214 44.0149 26.106 43.5612C26.2906 43.1075 26.3829 42.3692 26.3829 41.3463C26.3829 40.312 26.2887 39.5699 26.1003 39.12C25.9157 38.6662 25.6177 38.4394 25.2062 38.4394C24.7871 38.4394 24.4872 38.6662 24.3065 39.12C24.1257 39.5699 24.0354 40.312 24.0354 41.3463Z" fill="#FA7800"/>
    <path d="M34.2675 42.0558L35.0346 41.0753L36.8399 39.1142H38.8241L36.2632 41.9116L38.9798 45.5626H36.9495L35.0923 42.9498L34.3367 43.5554V45.5626H32.5775V36.5879H34.3367V40.5908L34.2444 42.0558H34.2675Z" fill="#FA7800"/>
    <path d="M45.5147 39.1142V40.0082L44.5054 40.2678C44.6899 40.5562 44.7822 40.8792 44.7822 41.2368C44.7822 41.9289 44.54 42.4691 44.0555 42.8575C43.5748 43.242 42.9058 43.4343 42.0483 43.4343L41.731 43.417L41.4715 43.3882C41.2908 43.5266 41.2004 43.6804 41.2004 43.8496C41.2004 44.1034 41.5234 44.2303 42.1694 44.2303H43.2653C43.9728 44.2303 44.5111 44.3821 44.8803 44.6859C45.2533 44.9897 45.4398 45.4357 45.4398 46.024C45.4398 46.7777 45.1245 47.3622 44.4938 47.7775C43.8671 48.1927 42.9654 48.4004 41.7887 48.4004C40.8889 48.4004 40.2007 48.2427 39.7238 47.9274C39.2509 47.616 39.0144 47.1776 39.0144 46.6124C39.0144 46.224 39.1355 45.8991 39.3778 45.6376C39.62 45.3761 39.9757 45.1896 40.4448 45.0781C40.2641 45.0012 40.1064 44.8763 39.9719 44.7032C39.8373 44.5263 39.77 44.3398 39.77 44.1437C39.77 43.8976 39.8411 43.6938 39.9834 43.5323C40.1257 43.367 40.3314 43.2055 40.6006 43.0479C40.2622 42.9017 39.993 42.6672 39.7931 42.3442C39.597 42.0212 39.4989 41.6405 39.4989 41.2021C39.4989 40.4985 39.7277 39.9544 40.1853 39.5699C40.6429 39.1853 41.2965 38.9931 42.1463 38.9931C42.3271 38.9931 42.5405 39.0104 42.7866 39.045C43.0365 39.0757 43.1961 39.0988 43.2653 39.1142H45.5147ZM40.5371 46.4739C40.5371 46.7162 40.6525 46.9065 40.8832 47.045C41.1177 47.1834 41.4446 47.2526 41.8637 47.2526C42.4943 47.2526 42.9884 47.1661 43.346 46.993C43.7036 46.82 43.8824 46.5835 43.8824 46.2836C43.8824 46.0414 43.7767 45.8741 43.5652 45.7818C43.3537 45.6895 43.0269 45.6434 42.5847 45.6434H41.6734C41.3504 45.6434 41.0793 45.7184 40.8601 45.8683C40.6448 46.0221 40.5371 46.224 40.5371 46.4739ZM41.1773 41.2252C41.1773 41.5751 41.2562 41.852 41.4138 42.0558C41.5753 42.2596 41.8195 42.3615 42.1463 42.3615C42.477 42.3615 42.7193 42.2596 42.8731 42.0558C43.0269 41.852 43.1038 41.5751 43.1038 41.2252C43.1038 40.4485 42.7846 40.0601 42.1463 40.0601C41.5003 40.0601 41.1773 40.4485 41.1773 41.2252Z" fill="#FA7800"/>
</svg>
