<svg width="54" height="54" viewBox="0 0 54 54" fill="none" xmlns="http://www.w3.org/2000/svg">
    <path fill-rule="evenodd" clip-rule="evenodd" d="M27 49C28.1046 49 29 48.1046 29 47C29 45.8954 28.1046 45 27 45C25.8954 45 25 45.8954 25 47C25 48.1046 25.8954 49 27 49ZM27 52C29.7614 52 32 49.7614 32 47C32 44.2386 29.7614 42 27 42C24.2386 42 22 44.2386 22 47C22 49.7614 24.2386 52 27 52Z" fill="#555555"/>
    <path d="M34.2587 43.016C33.4384 42.6468 32.5858 43.464 32.9199 44.2993L34 46.9995L48.2303 51.7429C48.7401 51.9129 49.274 51.9995 49.8114 51.9995H51C51.5523 51.9995 52 51.5518 52 50.9995L34.2587 43.016Z" fill="#555555"/>
    <mask id="path-3-inside-1_132_735" fill="white">
        <rect x="13" y="2" width="14" height="15" rx="1"/>
    </mask>
    <rect x="13" y="2" width="14" height="15" rx="1" stroke="#555555" stroke-width="4" mask="url(#path-3-inside-1_132_735)"/>
    <rect x="19" y="3" width="2" height="13" fill="#555555"/>
    <path d="M52 25.2354L24.362 39.0002H31.3266L50.8916 29.256C51.5707 28.9178 52 28.2244 52 27.4658V25.2354Z" fill="#FA7800"/>
    <path d="M18.7446 18C18.2769 18 18.1893 18.6653 18.6411 18.7864L46.1383 26.1543L50.544 24.4629L26.4259 18H18.7446Z" fill="#FA7800"/>
    <rect x="19" y="38" width="16" height="3" rx="1" fill="#555555"/>
    <path d="M15.457 24.4568C15.2695 24.6443 15.0152 24.7496 14.75 24.7496C14.4849 24.7496 14.2306 24.6443 14.043 24.4568L13 23.4138V26.2498C13 26.515 12.8947 26.7694 12.7071 26.9569C12.5196 27.1444 12.2652 27.2498 12 27.2498C11.7348 27.2498 11.4805 27.1444 11.2929 26.9569C11.1054 26.7694 11 26.515 11 26.2498V23.4138L9.95703 24.4568C9.76843 24.6389 9.51583 24.7397 9.25363 24.7375C8.99143 24.7352 8.74062 24.63 8.55521 24.4446C8.3698 24.2592 8.26464 24.0084 8.26236 23.7462C8.26008 23.484 8.36087 23.2314 8.54303 23.0428L11.293 20.2928C11.4806 20.1053 11.7349 20 12 20C12.2652 20 12.5195 20.1053 12.707 20.2928L15.457 23.0428C15.6445 23.2303 15.7498 23.4846 15.7498 23.7498C15.7498 24.015 15.6445 24.2693 15.457 24.4568ZM6.45703 32.0428C6.55254 32.135 6.62872 32.2454 6.68113 32.3674C6.73354 32.4894 6.76113 32.6206 6.76228 32.7534C6.76343 32.8862 6.73813 33.0178 6.68785 33.1407C6.63757 33.2636 6.56332 33.3753 6.46943 33.4692C6.37553 33.5631 6.26388 33.6373 6.14098 33.6876C6.01809 33.7379 5.88641 33.7632 5.75363 33.762C5.62085 33.7609 5.48963 33.7333 5.36763 33.6809C5.24562 33.6285 5.13528 33.5523 5.04303 33.4568L2.29303 30.7068C2.10556 30.5193 2.00024 30.265 2.00024 29.9998C2.00024 29.7346 2.10556 29.4803 2.29303 29.2928L5.04303 26.5428C5.23163 26.3606 5.48424 26.2598 5.74643 26.2621C6.00863 26.2644 6.25944 26.3696 6.44485 26.555C6.63026 26.7404 6.73543 26.9912 6.7377 27.2534C6.73998 27.5156 6.63919 27.7682 6.45703 27.9568L5.41403 28.9998H8.25003C8.51525 28.9998 8.7696 29.1051 8.95714 29.2927C9.14467 29.4802 9.25003 29.7346 9.25003 29.9998C9.25003 30.265 9.14467 30.5194 8.95714 30.7069C8.7696 30.8944 8.51525 30.9998 8.25003 30.9998H5.41403L6.45703 32.0428ZM18.957 33.4568C18.7684 33.6389 18.5158 33.7397 18.2536 33.7375C17.9914 33.7352 17.7406 33.63 17.5552 33.4446C17.3698 33.2592 17.2646 33.0084 17.2624 32.7462C17.2601 32.484 17.3609 32.2314 17.543 32.0428L18.586 30.9998H15.75C15.4848 30.9998 15.2305 30.8944 15.0429 30.7069C14.8554 30.5194 14.75 30.265 14.75 29.9998C14.75 29.7346 14.8554 29.4802 15.0429 29.2927C15.2305 29.1051 15.4848 28.9998 15.75 28.9998H18.586L17.543 27.9568C17.3609 27.7682 17.2601 27.5156 17.2624 27.2534C17.2646 26.9912 17.3698 26.7404 17.5552 26.555C17.7406 26.3696 17.9914 26.2644 18.2536 26.2621C18.5158 26.2598 18.7684 26.3606 18.957 26.5428L21.707 29.2928C21.8945 29.4803 21.9998 29.7346 21.9998 29.9998C21.9998 30.265 21.8945 30.5193 21.707 30.7068L18.957 33.4568ZM11 36.5858V33.7498C11 33.4846 11.1054 33.2302 11.2929 33.0427C11.4805 32.8551 11.7348 32.7498 12 32.7498C12.2652 32.7498 12.5196 32.8551 12.7071 33.0427C12.8947 33.2302 13 33.4846 13 33.7498V36.5858L14.043 35.5428C14.2316 35.3606 14.4842 35.2598 14.7464 35.2621C15.0086 35.2644 15.2594 35.3696 15.4448 35.555C15.6303 35.7404 15.7354 35.9912 15.7377 36.2534C15.74 36.5156 15.6392 36.7682 15.457 36.9568L12.707 39.7068C12.5195 39.8943 12.2652 39.9996 12 39.9996C11.7349 39.9996 11.4806 39.8943 11.293 39.7068L8.54303 36.9568C8.44752 36.8645 8.37134 36.7542 8.31893 36.6322C8.26652 36.5102 8.23893 36.379 8.23778 36.2462C8.23663 36.1134 8.26193 35.9817 8.31221 35.8588C8.36249 35.7359 8.43674 35.6243 8.53064 35.5304C8.62453 35.4365 8.73618 35.3622 8.85908 35.312C8.98197 35.2617 9.11365 35.2364 9.24643 35.2375C9.37921 35.2387 9.51043 35.2663 9.63243 35.3187C9.75444 35.3711 9.86478 35.4473 9.95703 35.5428L11 36.5858Z" fill="#555555"/>
    <path d="M19.7413 43.016C20.5616 42.6468 21.4142 43.464 21.0801 44.2993L20 46.9995L5.76975 51.7429C5.25992 51.9129 4.72602 51.9995 4.18861 51.9995H3C2.44772 51.9995 2 51.5518 2 50.9995L19.7413 43.016Z" fill="#555555"/>
</svg>
