<svg width="24" height="24" viewBox="0 0 24 24" fill="none" xmlns="http://www.w3.org/2000/svg">
    <path d="M17.2457 9.05882H15.4286V3.17647C15.4286 2.52941 14.9143 2 14.2857 2H9.71429C9.08571 2 8.57143 2.52941 8.57143 3.17647V9.05882H6.75429C5.73714 9.05882 5.22286 10.3294 5.94286 11.0706L11.1886 16.4706C11.6343 16.9294 12.3543 16.9294 12.8 16.4706L18.0457 11.0706C18.7657 10.3294 18.2629 9.05882 17.2457 9.05882ZM4 20.8235C4 21.4706 4.51429 22 5.14286 22H18.8571C19.4857 22 20 21.4706 20 20.8235C20 20.1765 19.4857 19.6471 18.8571 19.6471H5.14286C4.51429 19.6471 4 20.1765 4 20.8235Z" fill="#2F2F2F"/>
</svg>
