<svg width="32" height="32" viewBox="0 0 32 32" fill="none" xmlns="http://www.w3.org/2000/svg">
    <path d="M5.61394 6.66675H26.386C28.3457 6.66675 29.3333 7.59169 29.3333 9.47294V22.673C29.3333 24.5386 28.3457 25.4792 26.386 25.4792H5.61394C3.65431 25.4792 2.66666 24.5386 2.66666 22.673V9.47294C2.66666 7.59169 3.65431 6.66675 5.61394 6.66675ZM15.9922 20.149L26.5585 11.4796C26.9347 11.1661 27.2326 10.4449 26.7623 9.80216C26.3077 9.1594 25.4768 9.14372 24.9281 9.53565L15.9922 15.587L7.07191 9.53565C6.52321 9.14372 5.69233 9.1594 5.23769 9.80216C4.76738 10.4449 5.06525 11.1661 5.44149 11.4796L15.9922 20.149Z" fill="#FA7800"/>
</svg>
