<svg width="40" height="41" viewBox="0 0 40 41" fill="none" xmlns="http://www.w3.org/2000/svg">
    <path d="M19.9951 10.2394C18.5541 10.2394 17.8336 10.8861 17.8336 12.1795C17.8336 13.4816 18.5541 14.1326 19.9951 14.1326C20.7156 14.1326 21.2538 13.9634 21.6097 13.6248C21.9742 13.2776 22.1565 12.7958 22.1565 12.1795C22.1565 10.8861 21.436 10.2394 19.9951 10.2394Z" fill="#FA7800"/>
    <path d="M18.0029 30.4998H21.9742V15.9425H18.0029V30.4998Z" fill="#FA7800"/>
    <path fill-rule="evenodd" clip-rule="evenodd" d="M38.3333 20.4998C38.3333 30.6251 30.1252 38.8332 20 38.8332C9.87474 38.8332 1.66663 30.6251 1.66663 20.4998C1.66663 10.3746 9.87474 2.1665 20 2.1665C30.1252 2.1665 38.3333 10.3746 38.3333 20.4998ZM35 20.4998C35 28.7841 28.2842 35.4998 20 35.4998C11.7157 35.4998 4.99996 28.7841 4.99996 20.4998C4.99996 12.2156 11.7157 5.49984 20 5.49984C28.2842 5.49984 35 12.2156 35 20.4998Z" fill="#FA7800"/>
</svg>
