<svg width="229" height="28" viewBox="0 0 229 28" fill="none" xmlns="http://www.w3.org/2000/svg">
    <path d="M13.9414 15.4668C13.9414 17.1777 13.1035 18.0332 11.4277 18.0332H4.76562V28H0.652344V0.490234H11.4277C13.1035 0.490234 13.9414 1.33398 13.9414 3.02148V15.4668ZM9.79297 14.5V4.02344H4.76562V14.5H9.79297ZM27.6699 28H16.8594V0.490234H20.9727V24.3262H27.6699V28ZM43.9824 25.4863C43.9824 27.1621 43.1504 28 41.4863 28H32.5566C30.9277 28 30.1133 27.1621 30.1133 25.4863V3.02148C30.1133 1.33398 30.9277 0.490234 32.5566 0.490234H41.4863C43.1504 0.490234 43.9824 1.33398 43.9824 3.02148V25.4863ZM39.8691 24.4668V4.02344H34.2266V24.4668H39.8691ZM60.4883 25.4863C60.4883 27.1621 59.6562 28 57.9922 28H49.7129C48.0605 28 47.2344 27.1621 47.2344 25.4863V18.9297H51.3477V24.5371H56.375V19.1406L48.1309 11.3359C47.5332 10.7617 47.2344 10.0293 47.2344 9.13867V3.02148C47.2344 1.33398 48.0605 0.490234 49.7129 0.490234H57.9922C59.6562 0.490234 60.4883 1.32227 60.4883 2.98633V9.13867H56.375V3.95312H51.3477V8.92773L59.5918 16.6973C60.1895 17.2598 60.4883 18.0039 60.4883 18.9297V25.4863ZM67.9414 28H63.8281V0.490234H67.9414V28ZM85.2559 28H81.6523L75.0605 10.6855C75.2363 11.5293 75.3242 12.1914 75.3242 12.6719V28H71.3164V0.490234H74.9199L81.5117 17.4531C81.3359 16.6094 81.248 15.9473 81.248 15.4668V0.490234H85.2559V28ZM102.412 0.648438L98.7734 12.1445C98.3281 13.2812 97.7246 15.1973 96.9629 17.8926V28H92.832V17.8926C92.6445 16.9785 92.375 16.0117 92.0234 14.9922C91.4023 13.2461 91.0684 12.2969 91.0215 12.1445L87.4004 0.648438C87.3887 0.636719 87.3887 0.583984 87.4004 0.490234H91.6367L94.9238 12.4434L98.1934 0.490234H102.412C102.412 0.572266 102.412 0.625 102.412 0.648438ZM112.607 19.2461H104.223V15.5723H112.607V19.2461ZM129.148 25.4863C129.148 27.1621 128.311 28 126.635 28H115.648V0.490234H126.564C128.193 0.490234 129.008 1.33398 129.008 3.02148V10.1055C129.008 11.043 128.715 11.7695 128.129 12.2852C128.047 12.3555 127.332 12.8066 125.984 13.6387C127.379 14.4941 128.117 14.9629 128.199 15.0449C128.832 15.5957 129.148 16.3516 129.148 17.3125V25.4863ZM124.912 10.6152V3.95312H119.762V12.0215H122.926L124.912 10.6152ZM125.018 24.5371V16.6973L122.996 15.3613H119.762V24.5371H125.018ZM146.322 28H142.244L141.418 22.7793H136.268L135.441 28H131.381V27.9297L136.707 0.455078H141.031L146.322 28ZM140.838 19.2461L138.834 6.83594L136.812 19.2461H140.838ZM162.23 25.4863C162.23 27.1621 161.393 28 159.717 28H151.068C149.439 28 148.625 27.1621 148.625 25.4863V3.02148C148.625 1.33398 149.457 0.490234 151.121 0.490234H159.717C161.393 0.490234 162.23 1.33398 162.23 3.02148V8.89258H158.1V4.02344H152.738V24.4668H158.1V16.7676H155.041V13.2695H162.23V25.4863ZM179.615 28H175.326L170.791 15.2207C170.791 15.2207 170.791 14.3945 170.791 12.7422H174.834V4.02344H169.648V28H165.535V0.490234H176.451C178.104 0.490234 178.93 1.33398 178.93 3.02148V13.0234C178.93 14.1836 178.537 14.9336 177.752 15.2734C177.33 15.4492 176.439 15.5371 175.08 15.5371L179.615 28ZM195.963 0.648438L192.324 12.1445C191.879 13.2812 191.275 15.1973 190.514 17.8926V28H186.383V17.8926C186.195 16.9785 185.926 16.0117 185.574 14.9922C184.953 13.2461 184.619 12.2969 184.572 12.1445L180.951 0.648438C180.939 0.636719 180.939 0.583984 180.951 0.490234H185.188L188.475 12.4434L191.744 0.490234H195.963C195.963 0.572266 195.963 0.625 195.963 0.648438ZM201.729 28H197.773V23.7461H201.729V28ZM216.002 25.8027C216.002 27.2676 215.258 28 213.77 28H206.791C205.279 28 204.523 27.2676 204.523 25.8027V12.4434C204.523 10.9785 205.279 10.2461 206.791 10.2461H213.77C215.258 10.2461 216.002 10.9785 216.002 12.4434V16.6621H212.082V13.6035H208.479V24.6602H212.082V21.2676H216.002V25.8027ZM228.939 28H218.252V25.627L224.158 13.5332H218.727V10.2461H228.939V12.6367L222.998 24.7305H228.939V28Z" fill="white" fill-opacity="0.5"/>
</svg>
