<svg width="180" height="22" viewBox="0 0 180 22" fill="none" xmlns="http://www.w3.org/2000/svg">
    <path d="M10.4782 11.8365C10.4782 13.1855 9.81751 13.86 8.49619 13.86H3.24324V21.7186H0V0.02772H8.49619C9.81751 0.02772 10.4782 0.693001 10.4782 2.02356V11.8365ZM7.20721 11.0742V2.81358H3.24324V11.0742H7.20721Z" fill="#2F2F2F"/>
    <path d="M21.3028 21.7186H12.7789V0.02772H16.0222V18.8219H21.3028V21.7186Z" fill="#2F2F2F"/>
    <path d="M34.1649 19.7367C34.1649 21.058 33.5089 21.7186 32.1968 21.7186H25.1559C23.8716 21.7186 23.2294 21.058 23.2294 19.7367V2.02356C23.2294 0.693001 23.8716 0.02772 25.1559 0.02772H32.1968C33.5089 0.02772 34.1649 0.693001 34.1649 2.02356V19.7367ZM30.9217 18.9328V2.81358H26.4726V18.9328H30.9217Z" fill="#2F2F2F"/>
    <path d="M47.1795 19.7367C47.1795 21.058 46.5234 21.7186 45.2114 21.7186H38.6833C37.3805 21.7186 36.729 21.058 36.729 19.7367V14.5669H39.9723V18.9882H43.9362V14.7332L37.4359 8.57935C36.9647 8.12659 36.729 7.54909 36.729 6.84685V2.02356C36.729 0.693001 37.3805 0.02772 38.6833 0.02772H45.2114C46.5234 0.02772 47.1795 0.683761 47.1795 1.99584V6.84685H43.9362V2.75814H39.9723V6.68053L46.4726 12.8067C46.9439 13.2502 47.1795 13.8369 47.1795 14.5669V19.7367Z" fill="#2F2F2F"/>
    <path d="M53.0561 21.7186H49.8129V0.02772H53.0561V21.7186Z" fill="#2F2F2F"/>
    <path d="M66.7083 21.7186H63.8669L58.6694 8.06653C58.808 8.73181 58.8773 9.25387 58.8773 9.63271V21.7186H55.7173V0.02772H58.5586L63.7561 13.4026C63.6175 12.7374 63.5482 12.2153 63.5482 11.8365V0.02772H66.7083V21.7186Z" fill="#2F2F2F"/>
    <path d="M80.2356 0.15246L77.3666 9.21691C77.0155 10.1132 76.5396 11.6239 75.939 13.7491V21.7186H72.6819V13.7491C72.5341 13.0284 72.3216 12.2661 72.0444 11.4622C71.5546 10.0855 71.2913 9.33703 71.2543 9.21691L68.3992 0.15246C68.3899 0.14322 68.3899 0.10164 68.3992 0.02772H71.7394L74.3313 9.45253L76.9092 0.02772H80.2356C80.2356 0.0924001 80.2356 0.13398 80.2356 0.15246Z" fill="#2F2F2F"/>
    <path d="M88.2744 14.8164H81.6632V11.9196H88.2744V14.8164Z" fill="#FA7800"/>
    <path d="M101.317 19.7367C101.317 21.058 100.656 21.7186 99.3347 21.7186H90.6722V0.02772H99.2793C100.564 0.02772 101.206 0.693001 101.206 2.02356V7.60915C101.206 8.34835 100.975 8.92123 100.513 9.32779C100.448 9.38323 99.8845 9.73897 98.8219 10.395C99.9215 11.0695 100.504 11.4391 100.568 11.5038C101.067 11.9381 101.317 12.5341 101.317 13.2918V19.7367ZM97.9764 8.01109V2.75814H93.9155V9.11989H96.4103L97.9764 8.01109ZM98.0596 18.9882V12.8067L96.4657 11.7533H93.9155V18.9882H98.0596Z" fill="#2F2F2F"/>
    <path d="M114.858 21.7186H111.642L110.991 17.6022H106.93L106.279 21.7186H103.077V21.6632L107.277 0H110.686L114.858 21.7186ZM110.534 14.8164L108.954 5.03118L107.36 14.8164H110.534Z" fill="#2F2F2F"/>
    <path d="M127.401 19.7367C127.401 21.058 126.741 21.7186 125.419 21.7186H118.6C117.316 21.7186 116.674 21.058 116.674 19.7367V2.02356C116.674 0.693001 117.33 0.02772 118.642 0.02772H125.419C126.741 0.02772 127.401 0.693001 127.401 2.02356V6.65281H124.144V2.81358H119.917V18.9328H124.144V12.8621H121.733V10.1039H127.401V19.7367Z" fill="#2F2F2F"/>
    <path d="M141.109 21.7186H137.727L134.151 11.6424C134.151 11.6424 134.151 10.991 134.151 9.68815H137.339V2.81358H133.25V21.7186H130.007V0.02772H138.614C139.917 0.02772 140.568 0.693001 140.568 2.02356V9.90991C140.568 10.8247 140.259 11.416 139.64 11.684C139.307 11.8226 138.605 11.8919 137.533 11.8919L141.109 21.7186Z" fill="#2F2F2F"/>
    <path d="M153.999 0.15246L151.13 9.21691C150.778 10.1132 150.303 11.6239 149.702 13.7491V21.7186H146.445V13.7491C146.297 13.0284 146.085 12.2661 145.807 11.4622C145.318 10.0855 145.054 9.33703 145.017 9.21691L142.162 0.15246C142.153 0.14322 142.153 0.10164 142.162 0.02772H145.502L148.094 9.45253L150.672 0.02772H153.999C153.999 0.0924001 153.999 0.13398 153.999 0.15246Z" fill="#2F2F2F"/>
    <path d="M158.545 21.7186H155.426V18.3645H158.545V21.7186Z" fill="#2F2F2F"/>
    <path d="M169.799 19.9861C169.799 21.1411 169.212 21.7186 168.039 21.7186H162.536C161.344 21.7186 160.748 21.1411 160.748 19.9861V9.45253C160.748 8.29753 161.344 7.72003 162.536 7.72003H168.039C169.212 7.72003 169.799 8.29753 169.799 9.45253V12.7789H166.708V10.3673H163.867V19.0852H166.708V16.4103H169.799V19.9861Z" fill="#2F2F2F"/>
    <path d="M180 21.7186H171.573V19.8475L176.23 10.3118H171.947V7.72003H180V9.60499L175.315 19.1407H180V21.7186Z" fill="#2F2F2F"/>
</svg>
