<svg width="40" height="40" viewBox="0 0 40 40" fill="none" xmlns="http://www.w3.org/2000/svg">
    <path d="M3.33337 31.1113C3.33337 27.5955 9.82689 25.1252 15.3704 24.1576V25.0002C15.3704 26.8411 16.8628 28.3335 18.7037 28.3335H21.2963C23.1373 28.3335 24.6297 26.8411 24.6297 25.0002V24.1576C30.1732 25.1252 36.6667 27.5955 36.6667 31.1113V36.6668H31.1112V30.9261C31.1112 30.4147 30.6966 30.0002 30.1852 30.0002C29.6739 30.0002 29.2593 30.4147 29.2593 30.9261V36.6668H11.6667V30.9261C11.6667 30.4147 11.2522 30.0002 10.7408 30.0002C10.2294 30.0002 9.81486 30.4147 9.81486 30.9261V36.6668H3.33337V31.1113Z" fill="#FA7800"/>
    <path fill-rule="evenodd" clip-rule="evenodd" d="M20.926 7.48164V3.3872C21.4891 3.45046 22.0458 3.56105 22.5899 3.71961C22.9701 3.83158 23.3422 3.96924 23.7037 4.13164V9.3335C23.7037 9.57907 23.8013 9.81458 23.9749 9.98823C24.1486 10.1619 24.3841 10.2594 24.6297 10.2594C24.8752 10.2594 25.1108 10.1619 25.2844 9.98823C25.458 9.81458 25.5556 9.57907 25.5556 9.3335V5.28905C26.8556 6.37979 27.6167 7.76405 27.8167 9.0159L27.8334 9.02794C27.9056 9.55572 27.8667 10.0335 27.7334 10.4168C27.659 10.6468 27.6774 10.8968 27.7849 11.1133C27.8923 11.3299 28.0801 11.4958 28.3082 11.5757C28.5364 11.6556 28.7867 11.6432 29.0058 11.541C29.2248 11.4388 29.3952 11.255 29.4806 11.0289C29.4962 10.9841 29.511 10.939 29.525 10.8937C31.043 12.8638 29.7903 14.2819 27.3192 15.1482C27.4497 15.9851 27.436 16.8404 27.2766 17.6767C27.0625 18.7993 26.5917 19.8572 25.9008 20.7675C25.2099 21.6779 24.3177 22.416 23.294 22.9242C22.2704 23.4324 21.1431 23.6968 20.0002 23.6968C18.8574 23.6968 17.73 23.4324 16.7064 22.9242C15.6828 22.416 14.7906 21.6779 14.0997 20.7675C13.4088 19.8572 12.9379 18.7993 12.7239 17.6767C12.5645 16.8405 12.5508 15.9853 12.6812 15.1485C10.2145 14.284 8.96154 12.8698 10.4658 10.9057C10.4797 10.9492 10.4945 10.9924 10.5102 11.0353C10.5974 11.2607 10.7692 11.443 10.9889 11.5434C11.2087 11.6438 11.459 11.6544 11.6864 11.5728C11.9138 11.4913 12.1003 11.324 12.2062 11.1069C12.312 10.8897 12.3287 10.6397 12.2528 10.4103C12.1343 10.0807 12.0889 9.60109 12.1713 9.01868L12.1899 9.00016C12.1967 8.95686 12.2041 8.91365 12.2121 8.87053C12.4445 7.63072 13.176 6.2159 14.4445 5.12516V9.3335C14.4445 9.57907 14.542 9.81458 14.7157 9.98823C14.8893 10.1619 15.1248 10.2594 15.3704 10.2594C15.616 10.2594 15.8515 10.1619 16.0251 9.98823C16.1988 9.81458 16.2963 9.57907 16.2963 9.3335V3.97239C17.1783 3.6002 18.1182 3.38402 19.0741 3.3335V7.48164C19.0741 7.72721 19.1717 7.96273 19.3453 8.13637C19.519 8.31002 19.7545 8.40757 20 8.40757C20.2456 8.40757 20.4811 8.31002 20.6548 8.13637C20.8284 7.96273 20.926 7.72721 20.926 7.48164ZM14.707 17.9721C14.47 17.2263 14.3932 16.4388 14.4817 15.6612C17.8299 16.3372 22.1724 16.3372 25.5215 15.6612C25.61 16.4388 25.5333 17.2263 25.2963 17.9721C25.0592 18.718 24.6673 19.4053 24.1462 19.9891C23.625 20.573 22.9864 21.0401 22.2722 21.3599C21.558 21.6798 20.7842 21.8451 20.0016 21.8451C19.219 21.8451 18.4453 21.6798 17.731 21.3599C17.0168 21.0401 16.3782 20.573 15.857 19.9891C15.3359 19.4053 14.944 18.718 14.707 17.9721Z" fill="#FA7800"/>
</svg>
