<svg width="32" height="32" viewBox="0 0 32 32" fill="none" xmlns="http://www.w3.org/2000/svg">
    <path d="M20.6667 1.33325H10C9.11597 1.33325 8.26812 1.68444 7.643 2.30956C7.01788 2.93468 6.66669 3.78253 6.66669 4.66658V27.3333C6.66669 28.2173 7.01788 29.0652 7.643 29.6903C8.26812 30.3154 9.11597 30.6666 10 30.6666H20.6667C21.5507 30.6666 22.3986 30.3154 23.0237 29.6903C23.6488 29.0652 24 28.2173 24 27.3333V4.66658C24 3.78253 23.6488 2.93468 23.0237 2.30956C22.3986 1.68444 21.5507 1.33325 20.6667 1.33325ZM15.3334 29.3333C14.2267 29.3333 13.3334 28.4399 13.3334 27.3333C13.3334 26.2266 14.2267 25.3333 15.3334 25.3333C16.44 25.3333 17.3334 26.2266 17.3334 27.3333C17.3334 28.4399 16.44 29.3333 15.3334 29.3333ZM21.3334 23.9999H9.33335V3.99992H21.3334V23.9999Z" fill="#FA7800"/>
</svg>
