<svg width="24" height="24" viewBox="0 0 24 24" fill="none" xmlns="http://www.w3.org/2000/svg">
    <path d="M19 9.05882C19 5.16471 15.8617 2 12 2C8.13833 2 5 5.16471 5 9.05882C5 14.3529 12 22 12 22C12 22 19 14.3529 19 9.05882ZM9.66667 9.05882C9.66667 7.76471 10.7167 6.70588 12 6.70588C13.2833 6.70588 14.3333 7.76471 14.3333 9.05882C14.3333 9.68286 14.0875 10.2813 13.6499 10.7226C13.2123 11.1639 12.6188 11.4118 12 11.4118C11.3812 11.4118 10.7877 11.1639 10.3501 10.7226C9.9125 10.2813 9.66667 9.68286 9.66667 9.05882Z" fill="#FA7800"/>
</svg>
