<svg width="40" height="40" viewBox="0 0 40 40" fill="none" xmlns="http://www.w3.org/2000/svg">
    <path d="M11.187 22.0062L25.6849 18.5473L26.8624 19.7248L12.4381 23.2573L11.187 22.0062Z" fill="#0082FA"/>
    <path fill-rule="evenodd" clip-rule="evenodd" d="M15.0016 17.2594C14.4047 16.6625 14.1185 16.0982 14.143 15.5667C14.1757 15.0434 14.4537 14.5201 14.9771 13.9967L16.4367 12.5371C16.96 12.0138 17.4833 11.7358 18.0067 11.7031C18.53 11.6704 19.1024 11.9647 19.7238 12.5862L20.9627 13.825C21.5678 14.4301 21.854 14.9943 21.8213 15.5177C21.7886 16.041 21.5105 16.5643 20.9872 17.0877L19.5276 18.5473C19.0043 19.0706 18.4809 19.3486 17.9576 19.3813C17.4343 19.414 16.8619 19.1197 16.2404 18.4982L15.0016 17.2594ZM16.3999 16.3027L17.1971 17.0999C17.4751 17.378 17.7205 17.5088 17.9331 17.4924C18.162 17.4761 18.3951 17.3493 18.6322 17.1122L19.5521 16.1923C19.8301 15.9143 19.9651 15.673 19.9569 15.4686C19.9487 15.2642 19.8179 15.0352 19.5644 14.7817L18.7671 13.9845C18.5463 13.7637 18.3256 13.6329 18.1048 13.592C17.9004 13.5511 17.6469 13.6819 17.3443 13.9845L16.4244 14.9044C16.1873 15.1415 16.0523 15.3664 16.0196 15.579C16.0033 15.7916 16.13 16.0328 16.3999 16.3027Z" fill="#0082FA"/>
    <path fill-rule="evenodd" clip-rule="evenodd" d="M17.2217 27.9673C16.6247 27.3703 16.3426 26.8102 16.3753 26.2869C16.408 25.7635 16.6861 25.2402 17.2094 24.7169L18.669 23.2573C19.1923 22.7339 19.7116 22.4518 20.2267 22.4109C20.7501 22.3782 21.3225 22.6726 21.9439 23.2941L23.195 24.5452C23.8001 25.1503 24.0863 25.7145 24.0536 26.2378C24.0209 26.7611 23.7429 27.2845 23.2195 27.8078L21.7599 29.2674C21.2366 29.7907 20.7133 30.0688 20.1899 30.1015C19.6666 30.1342 19.0942 29.8398 18.4728 29.2184L17.2217 27.9673ZM18.6322 27.0228L19.4172 27.8078C19.7034 28.094 19.9528 28.2289 20.1654 28.2126C20.3944 28.1962 20.6274 28.0695 20.8645 27.8323L21.7845 26.9124C22.0625 26.6344 22.1933 26.3891 22.177 26.1765C22.1688 25.9721 22.038 25.7431 21.7845 25.4896L20.9995 24.7046C20.7787 24.4838 20.5579 24.353 20.3371 24.3121C20.1245 24.263 19.8669 24.3898 19.5644 24.6923L18.6445 25.6123C18.4073 25.8494 18.2724 26.0743 18.2397 26.2869C18.2234 26.4995 18.3542 26.7448 18.6322 27.0228Z" fill="#0082FA"/>
    <path d="M28.9024 11.0969C29.5746 11.7691 30.6644 11.7691 31.3366 11.0969C32.0088 10.4247 32.0088 9.33486 31.3366 8.66267C30.6644 7.99048 29.5746 7.99048 28.9024 8.66267C28.2302 9.33486 28.2302 10.4247 28.9024 11.0969Z" fill="#0082FA"/>
    <path fill-rule="evenodd" clip-rule="evenodd" d="M19.758 2.47073C18.5926 2.53928 17.4929 3.03312 16.6675 3.85859L3.06271 17.4633C1.20126 19.3248 1.20126 22.3428 3.06272 24.2042L15.7956 36.9371C17.657 38.7985 20.675 38.7985 22.5365 36.9371L36.1412 23.3323C36.9667 22.5069 37.4605 21.4072 37.5291 20.2418L38.3249 6.71315C38.4925 3.86408 36.1357 1.50733 33.2867 1.67492L19.758 2.47073ZM20.2895 34.6901L33.8942 21.0854C34.1694 20.8102 34.334 20.4436 34.3569 20.0552L35.1527 6.52655C35.2085 5.57685 34.4229 4.79128 33.4733 4.84714L19.9446 5.64294C19.5562 5.66579 19.1896 5.83041 18.9144 6.10556L5.30969 19.7103C4.6892 20.3308 4.6892 21.3368 5.30969 21.9573L18.0425 34.6901C18.663 35.3106 19.669 35.3106 20.2895 34.6901Z" fill="#0082FA"/>
</svg>
